<svg width="18" height="20" viewBox="0 0 18 20" fill="none" xmlns="http://www.w3.org/2000/svg">
    <path d="M7.54952 0.532078C8.38743 -0.174512 9.61257 -0.174511 10.4505 0.532079L17.2005 6.22419C17.7074 6.6517 18 7.28109 18 7.94425V17.747C18 18.7135 17.2165 19.497 16.25 19.497H12.75C11.7835 19.497 11 18.7135 11 17.747V12.247C11 12.1089 10.8881 11.997 10.75 11.997H7.24999C7.11192 11.997 6.99999 12.1089 6.99999 12.247V17.747C6.99999 18.7135 6.2165 19.497 5.25 19.497H1.75C0.783502 19.497 0 18.7135 0 17.747V7.94425C0 7.28109 0.292551 6.6517 0.799517 6.22419L7.54952 0.532078ZM9.48349 1.67878C9.20419 1.44325 8.79581 1.44325 8.51651 1.67878L1.76651 7.37089C1.59752 7.5134 1.5 7.72319 1.5 7.94425V17.747C1.5 17.8851 1.61193 17.997 1.75 17.997H5.25C5.38807 17.997 5.49999 17.8851 5.49999 17.747V12.247C5.49999 11.2805 6.2835 10.497 7.24999 10.497H10.75C11.7165 10.497 12.5 11.2805 12.5 12.247V17.747C12.5 17.8851 12.6119 17.997 12.75 17.997H16.25C16.3881 17.997 16.5 17.8851 16.5 17.747V7.94425C16.5 7.72319 16.4025 7.5134 16.2335 7.37089L9.48349 1.67878Z" fill="#212121"/>
</svg>
