<svg width="18" height="14" viewBox="0 0 18 14" fill="none" xmlns="http://www.w3.org/2000/svg">
    <path d="M11.7227 10.2211C11.43 10.5142 11.4303 10.9891 11.7234 11.2818C12.0165 11.5745 12.4914 11.5742 12.7841 11.2811L17.7807 6.27761C18.0732 5.98468 18.0731 5.51013 17.7804 5.21737L12.7838 0.219725C12.4909 -0.0731987 12.016 -0.0732479 11.7231 0.219615C11.4302 0.512478 11.4301 0.987352 11.723 1.28028L15.443 5H7.60123C6.00642 5 4.79015 5.24197 3.71218 5.76446L3.46576 5.89004C2.35728 6.48286 1.48286 7.35729 0.890038 8.46576C0.280624 9.60527 0 10.8837 0 12.6012C0 13.0154 0.335787 13.3512 0.75 13.3512C1.16421 13.3512 1.5 13.0154 1.5 12.6012C1.5 11.1174 1.72765 10.0802 2.21276 9.17316C2.66578 8.32609 3.32609 7.66578 4.17316 7.21276C5.01046 6.76497 5.95858 6.53655 7.26659 6.50406L7.60123 6.5H15.438L11.7227 10.2211Z" fill="white"/>
</svg>
