<svg width="12" height="12" viewBox="0 0 12 12" fill="none" xmlns="http://www.w3.org/2000/svg">
    <path d="M3.24848 6.99696C3.66186 6.99696 3.99696 6.66186 3.99696 6.24848C3.99696 5.83511 3.66186 5.5 3.24848 5.5C2.83511 5.5 2.5 5.83511 2.5 6.24848C2.5 6.66186 2.83511 6.99696 3.24848 6.99696ZM3.99696 8.74848C3.99696 9.16186 3.66186 9.49696 3.24848 9.49696C2.83511 9.49696 2.5 9.16186 2.5 8.74848C2.5 8.33511 2.83511 8 3.24848 8C3.66186 8 3.99696 8.33511 3.99696 8.74848ZM6.00043 6.99696C6.41381 6.99696 6.74892 6.66186 6.74892 6.24848C6.74892 5.83511 6.41381 5.5 6.00043 5.5C5.58706 5.5 5.25195 5.83511 5.25195 6.24848C5.25195 6.66186 5.58706 6.99696 6.00043 6.99696ZM6.74892 8.74848C6.74892 9.16186 6.41381 9.49696 6.00043 9.49696C5.58706 9.49696 5.25195 9.16186 5.25195 8.74848C5.25195 8.33511 5.58706 8 6.00043 8C6.41381 8 6.74892 8.33511 6.74892 8.74848ZM8.74848 6.99696C9.16186 6.99696 9.49696 6.66186 9.49696 6.24848C9.49696 5.83511 9.16186 5.5 8.74848 5.5C8.33511 5.5 8 5.83511 8 6.24848C8 6.66186 8.33511 6.99696 8.74848 6.99696ZM12 2.5C12 1.11929 10.8807 0 9.5 0H2.5C1.11929 0 0 1.11929 0 2.5V9.5C0 10.8807 1.11929 12 2.5 12H9.5C10.8807 12 12 10.8807 12 9.5V2.5ZM1 4H11V9.5C11 10.3284 10.3284 11 9.5 11H2.5C1.67157 11 1 10.3284 1 9.5V4ZM2.5 1H9.5C10.3284 1 11 1.67157 11 2.5V3H1V2.5C1 1.67157 1.67157 1 2.5 1Z" fill="#585858"/>
</svg>
