<svg width="28" height="28" viewBox="0 0 28 28" fill="none" xmlns="http://www.w3.org/2000/svg">
    <path d="M22.3527 21.2746L7.19411 6.11604C7.10903 6.03097 6.96982 6.03097 6.88475 6.11604L5.64731 7.35348C5.56224 7.43855 5.56224 7.57777 5.64731 7.66284L20.8059 22.8214C20.891 22.9065 21.0302 22.9065 21.1153 22.8214L22.3527 21.584C22.4378 21.4989 22.4378 21.3597 22.3527 21.2746Z" fill="white"/>
    <path d="M21.3133 6.11604L6.15465 21.2746C6.06958 21.3597 6.06958 21.4989 6.15465 21.584L7.39209 22.8214C7.47716 22.9065 7.61637 22.9065 7.70145 22.8214L22.86 7.66284C22.9451 7.57776 22.9451 7.43855 22.86 7.35348L21.6226 6.11604C21.5375 6.03097 21.3983 6.03097 21.3133 6.11604Z" fill="white"/>
</svg>
