<?xml version="1.0" encoding="iso-8859-1"?>
<!-- Generator: Adobe Illustrator 18.1.1, SVG Export Plug-In . SVG Version: 6.00 Build 0)  -->
<svg version="1.1" id="Capa_1" xmlns="http://www.w3.org/2000/svg" xmlns:xlink="http://www.w3.org/1999/xlink" x="0px" y="0px"
	 viewBox="0 0 612 612" style="enable-background:new 0 0 612 612;" xml:space="preserve">
<g>
	<g>
		<polygon points="587.52,122.4 24.48,122.4 24.48,146.88 587.52,146.88 587.52,465.12 612,465.12 612,146.88 612,122.4 		"/>
		<path d="M304.054,344.789c-2.283-1.61-5.777-2.821-10.502-3.648v21.114c9.29-1.2,13.929-4.645,13.929-10.337
			C307.481,348.779,306.337,346.41,304.054,344.789z"/>
		<path d="M281.52,218.411c-50.698,0-91.8,49.321-91.8,110.16s41.102,110.16,91.8,110.16s91.8-49.321,91.8-110.16
			S332.218,218.411,281.52,218.411z M322.132,374.042c-6.701,5.471-16.218,8.874-28.58,10.22v11.567H275.7v-11.004
			c-7.338-0.226-14.241-0.881-20.716-1.965c-6.481-1.083-11.848-2.601-16.114-4.547v-22.008c2.919,1.047,5.759,1.958,8.531,2.748
			s5.618,1.463,8.544,2.02c2.919,0.563,5.991,1.01,9.204,1.353c3.213,0.337,6.744,0.545,10.557,0.618v-24.59
			c-4.719-0.679-9.394-1.597-14.033-2.754c-4.645-1.157-8.819-2.901-12.522-5.226c-3.709-2.319-6.726-5.386-9.045-9.204
			s-3.476-8.758-3.476-14.829c0-4.939,0.894-9.333,2.693-13.182c1.793-3.862,4.382-7.191,7.748-10
			c3.372-2.803,7.473-5.073,12.295-6.793c4.835-1.72,10.282-2.919,16.34-3.592v-11.567h17.852v11.23
			c5.465,0.3,11.028,0.912,16.683,1.848c5.649,0.936,10.839,2.234,15.551,3.88v22.234c-11.53-3.745-22.277-5.838-32.234-6.285
			v24.927c4.719,0.747,9.382,1.738,13.978,2.974c4.608,1.23,8.727,3.029,12.356,5.392c3.629,2.356,6.585,5.447,8.862,9.26
			c2.283,3.819,3.433,8.727,3.433,14.712C332.181,361.056,328.828,368.583,322.132,374.042z"/>
		<path d="M261.22,305.327c0,3.146,1.193,5.539,3.592,7.191c2.399,1.646,6.022,2.919,10.887,3.813v-21.555
			c-5.471,0.6-9.247,1.812-11.34,3.648C262.26,300.253,261.22,302.561,261.22,305.327z"/>
		<path d="M459.055,171.36h-348.95H87.938H0v89.468v18.501v104.346v17.987V489.6h87.938h22.167h348.95h14.517h89.468v-87.938
			v-17.987V279.329v-18.501V171.36h-89.468H459.055z M538.56,275.773v111.457c-37.65,10.006-67.094,39.945-76.384,77.889H106.978
			c-9.786-39.994-41.922-71.212-82.498-79.45V277.328c41.267-8.378,73.85-40.514,83.018-81.488h354.158
			C470.365,234.751,500.224,265.584,538.56,275.773z"/>
		<circle cx="124.952" cy="327.928" r="33.66"/>
		<circle cx="443.192" cy="327.928" r="33.66"/>
	</g>
</g>
<g>
</g>
<g>
</g>
<g>
</g>
<g>
</g>
<g>
</g>
<g>
</g>
<g>
</g>
<g>
</g>
<g>
</g>
<g>
</g>
<g>
</g>
<g>
</g>
<g>
</g>
<g>
</g>
<g>
</g>
</svg>
