<svg width="18" height="16" viewBox="0 0 18 16" fill="none" xmlns="http://www.w3.org/2000/svg">
    <path d="M8.29492 6.88086C8.26562 6.79297 8.29492 6.70508 8.38281 6.61719C8.44141 6.55859 8.5293 6.5 8.64648 6.5H10.2285C10.3164 6.5 10.4043 6.55859 10.4922 6.61719C10.5508 6.70508 10.5801 6.79297 10.5801 6.88086L10.4043 10.1621C10.375 10.25 10.3164 10.3379 10.2578 10.3965C10.1992 10.4551 10.1113 10.4844 10.0527 10.4844H8.82227C8.73438 10.4844 8.64648 10.4551 8.58789 10.3965C8.5293 10.3379 8.4707 10.25 8.4707 10.1621L8.29492 6.88086ZM10.668 12.125C10.668 11.8027 10.5215 11.5098 10.2871 11.2754C10.0527 11.041 9.75977 10.8945 9.4375 10.8945C9.08594 10.8945 8.79297 11.041 8.55859 11.2754C8.32422 11.5098 8.20703 11.8027 8.20703 12.125C8.20703 12.4766 8.32422 12.7695 8.55859 13.0039C8.79297 13.2383 9.08594 13.3555 9.4375 13.3555C9.75977 13.3555 10.0527 13.2383 10.2871 13.0039C10.5215 12.7695 10.668 12.4766 10.668 12.125ZM10.668 1.57812L17.6992 13.7656C17.8457 14.0879 17.9043 14.4102 17.8457 14.7324C17.7871 15.0547 17.6113 15.3184 17.377 15.5527C17.1133 15.7871 16.8203 15.875 16.4688 15.875H2.40625C2.05469 15.875 1.73242 15.7871 1.49805 15.5527C1.23438 15.3184 1.08789 15.0547 1.0293 14.7324C0.970703 14.4102 1 14.0879 1.17578 13.7656L8.20703 1.57812C8.38281 1.28516 8.61719 1.08008 8.93945 0.962891C9.26172 0.845703 9.58398 0.845703 9.90625 0.962891C10.2285 1.08008 10.4922 1.28516 10.668 1.57812ZM2.55273 14.2051C2.49414 14.2637 2.49414 14.3223 2.55273 14.3809C2.58203 14.4395 2.64062 14.4688 2.69922 14.4688H16.1758C16.2344 14.4688 16.2637 14.4395 16.3223 14.3809C16.3516 14.3223 16.3516 14.2637 16.3223 14.2051L9.58398 2.54492C9.52539 2.48633 9.49609 2.45703 9.4375 2.45703C9.37891 2.45703 9.32031 2.48633 9.29102 2.54492L2.55273 14.2051Z" fill="#B50606"/>
</svg>
