<svg width="20" height="22" viewBox="0 0 20 22" fill="none" xmlns="http://www.w3.org/2000/svg">
    <path d="M8.59191 0.496354C9.41459 -0.163742 10.5854 -0.163743 11.4081 0.496354L19.1581 6.71468C19.6903 7.14173 20 7.78723 20 8.46961V19.75C20 20.9926 18.9926 22 17.75 22H14.75C13.5074 22 12.5 20.9926 12.5 19.75V13.75C12.5 13.3358 12.1642 13 11.75 13H8.25C7.83579 13 7.5 13.3358 7.5 13.75V19.75C7.5 20.9926 6.49264 22 5.25 22H2.25C1.00736 22 0 20.9926 0 19.75V8.46961C0 7.78723 0.309674 7.14173 0.841907 6.71468L8.59191 0.496354ZM10.4694 1.66631C10.1951 1.44627 9.80486 1.44627 9.53063 1.66631L1.78064 7.88464C1.60322 8.02698 1.5 8.24215 1.5 8.46961V19.75C1.5 20.1642 1.83579 20.5 2.25 20.5H5.25C5.66421 20.5 6 20.1642 6 19.75V13.75C6 12.5074 7.00736 11.5 8.25 11.5H11.75C12.9926 11.5 14 12.5074 14 13.75V19.75C14 20.1642 14.3358 20.5 14.75 20.5H17.75C18.1642 20.5 18.5 20.1642 18.5 19.75V8.46961C18.5 8.24215 18.3968 8.02698 18.2194 7.88464L10.4694 1.66631Z" fill="#01443A"/>
</svg>
