<svg width="190" height="146" viewBox="0 0 190 146" fill="none" xmlns="http://www.w3.org/2000/svg">
    <g clip-path="url(#clip0_56:375)">
        <path d="M3.17365 130.203C3.39715 130.203 4.48785 130.154 6.44574 130.061C6.49491 130.123 6.51726 130.269 6.51726 130.5C6.51726 130.731 6.48597 130.842 6.42339 130.842C6.29376 130.842 6.12836 130.86 5.92274 130.9C5.71712 130.94 5.50255 131.025 5.27905 131.162C5.05555 131.296 4.9438 131.469 4.9438 131.673C4.9438 131.971 5.54725 133.597 6.75864 136.538C6.95085 137.044 7.10731 137.431 7.23694 137.702C7.42915 138.19 7.66606 138.759 7.95215 139.399C8.23823 140.038 8.48409 140.567 8.68971 140.976C8.89533 141.389 8.99814 141.575 8.99814 141.544L12.4848 133.361C12.8022 132.619 12.9631 132.073 12.9631 131.726C12.9631 131.442 12.7753 131.225 12.4043 131.073C12.0288 130.922 11.6534 130.847 11.2689 130.847C11.2064 130.847 11.1751 130.731 11.184 130.505C11.1929 130.274 11.2108 130.127 11.2421 130.065C11.3852 130.065 11.7651 130.087 12.3864 130.136C13.0078 130.185 13.5084 130.207 13.8884 130.207C14.3041 130.207 14.7779 130.189 15.3188 130.149C15.8597 130.109 16.2486 130.083 16.49 130.065C16.5213 130.145 16.5391 130.265 16.5391 130.42C16.5391 130.691 16.5213 130.825 16.49 130.825C16.2843 130.825 16.0072 130.882 15.6675 131.002C15.3233 131.122 15.0595 131.291 14.8673 131.513C14.6304 131.895 14.2862 132.588 13.8392 133.601L8.87298 145.151C8.63607 145.72 8.32316 146.004 7.94321 146.004C7.78229 146.004 7.65712 145.924 7.55878 145.765L2.64171 133.619C2.27517 132.668 1.9712 131.966 1.73429 131.504C1.62254 131.3 1.37669 131.136 0.992261 131.02C0.612305 130.9 0.308341 130.842 0.0848381 130.842C0.0222572 130.842 -0.0090332 130.723 -0.0090332 130.487C-0.0090332 130.265 0.0133171 130.123 0.0624878 130.061C0.174239 130.061 0.612305 130.083 1.37669 130.132C2.15001 130.176 2.74453 130.203 3.17365 130.203Z" fill="#01443A"/>
        <path d="M20.5757 130.176C21.2775 130.176 22.5068 130.149 24.2769 130.092C26.0426 130.038 27.3792 130.007 28.2866 130.007C28.3492 130.483 28.4788 131.14 28.6665 131.989C28.8588 132.833 28.9616 133.299 28.975 133.375C28.8945 133.455 28.7291 133.495 28.4743 133.495C28.3 133.495 28.1883 133.441 28.1391 133.326C27.6161 131.918 26.5969 131.216 25.086 131.216H23.8434C22.6677 131.216 22.0598 131.318 22.0285 131.527C21.9302 131.966 21.8855 132.611 21.8855 133.446V137.168C21.8855 137.262 22.2341 137.311 22.9359 137.311H24.1786C24.1965 137.311 24.2278 137.311 24.2769 137.311C25.1978 137.311 25.7476 137.271 25.9219 137.191C26.0963 137.111 26.2304 136.835 26.3287 136.36C26.3779 136.12 26.4226 135.925 26.4717 135.769C26.4896 135.658 26.6148 135.6 26.8562 135.6C27.0797 135.6 27.2317 135.64 27.3076 135.72V140.203C27.2451 140.265 27.0931 140.296 26.8562 140.296C26.6506 140.296 26.5209 140.234 26.4717 140.105C26.36 139.678 26.2617 139.359 26.1723 139.154C26.0829 138.95 26.0292 138.839 26.0069 138.821C25.9845 138.803 25.913 138.759 25.8057 138.679C25.6001 138.554 24.867 138.488 23.6109 138.488C22.4666 138.488 21.8944 138.55 21.8944 138.679V142.357C21.8944 143.228 21.9659 143.868 22.109 144.281C22.1894 144.485 22.7303 144.587 23.7316 144.587H24.6167C25.8593 144.587 26.8025 144.423 27.4552 144.09C27.71 143.961 27.996 143.685 28.3134 143.259C28.6308 142.833 28.8766 142.353 29.051 141.811C29.0689 141.717 29.1806 141.669 29.3862 141.669C29.7349 141.669 29.9584 141.717 30.0567 141.811C30.0076 141.953 29.8958 142.277 29.7125 142.784C29.5293 143.29 29.3907 143.672 29.2968 143.934C29.203 144.196 29.1001 144.516 28.9884 144.894C28.8766 145.271 28.8051 145.582 28.7738 145.818C28.1391 145.818 26.8204 145.796 24.8223 145.747C22.8242 145.698 21.4206 145.693 20.6115 145.725L17.4378 145.818C17.3886 145.769 17.3662 145.645 17.3662 145.436C17.3662 145.169 17.3886 145.032 17.4378 145.032C17.6434 145.032 17.9473 144.978 18.3452 144.876C18.743 144.774 18.9755 144.649 19.038 144.507C19.1498 144.174 19.2034 143.454 19.2034 142.348V133.406C19.2034 132.455 19.1498 131.806 19.038 131.46C18.9889 131.287 18.7698 131.145 18.372 131.033C17.9742 130.922 17.6568 130.865 17.4154 130.865C17.3528 130.865 17.3215 130.745 17.3215 130.509C17.3215 130.287 17.3528 130.145 17.4154 130.083C18.4525 130.145 19.5074 130.176 20.5757 130.176Z" fill="#01443A"/>
        <path d="M44.2759 133.357C44.2759 132.517 44.1954 131.886 44.039 131.46C43.9585 131.269 43.6948 131.118 43.2389 131.007C42.7829 130.896 42.4298 130.842 42.175 130.842C42.1124 130.842 42.0766 130.727 42.0677 130.5C42.0588 130.269 42.0811 130.123 42.1258 130.061C43.8289 130.172 44.8302 130.225 45.1342 130.225C45.5499 130.225 46.0818 130.198 46.7344 130.141C47.3871 130.087 47.7938 130.056 47.9503 130.056C47.9816 130.118 47.9995 130.247 47.9995 130.434C47.9995 130.705 47.9682 130.838 47.9056 130.838C47.6821 130.838 47.3424 130.896 46.8775 131.016C46.4171 131.136 46.1131 131.296 45.9701 131.5C45.7957 131.926 45.7063 132.584 45.7063 133.472V142.464C45.7063 143.032 45.7376 144.139 45.8002 145.782C45.7376 145.845 45.5633 145.876 45.2772 145.876C45.0224 145.876 44.7676 145.693 44.5128 145.329L35.0139 132.806V142.415C35.0139 143.361 35.0765 144.01 35.2062 144.361C35.2866 144.547 35.5816 144.712 36.0912 144.845C36.6008 144.978 36.9584 145.045 37.164 145.045C37.2132 145.045 37.24 145.156 37.249 145.378C37.2579 145.6 37.2445 145.751 37.2132 145.831C35.3045 145.738 34.3077 145.689 34.2317 145.689C33.8026 145.689 33.2751 145.707 32.6448 145.747C32.0145 145.787 31.5988 145.813 31.3932 145.831C31.3306 145.769 31.2993 145.631 31.2993 145.427C31.2993 145.174 31.3306 145.049 31.3932 145.049C31.6659 145.049 32.0279 144.992 32.4794 144.872C32.9309 144.752 33.2214 144.574 33.3511 144.339C33.512 144.005 33.588 143.343 33.588 142.348V133.05C33.588 132.197 33.4986 131.62 33.3243 131.318C33.2617 131.207 32.9845 131.105 32.5018 131.007C32.0145 130.914 31.6614 130.865 31.4379 130.865C31.3753 130.865 31.3395 130.745 31.3306 130.509C31.3217 130.274 31.3485 130.123 31.4155 130.061C33.0873 130.141 34.035 130.181 34.254 130.181C34.777 130.181 35.4967 130.141 36.4041 130.061C36.7081 130.629 37.2579 131.473 38.0625 132.588C38.8671 133.703 39.9668 135.174 41.3704 137C42.7695 138.825 43.7261 140.087 44.2357 140.78C44.267 140.589 44.2848 140.265 44.2848 139.807V133.357H44.2759Z" fill="#01443A"/>
        <path d="M52.4875 130.176C53.1893 130.176 54.4185 130.149 56.1887 130.092C57.9544 130.038 59.2909 130.007 60.1983 130.007C60.2609 130.483 60.3906 131.14 60.5783 131.989C60.7705 132.833 60.8733 133.299 60.8867 133.375C60.8063 133.455 60.6409 133.495 60.3861 133.495C60.2117 133.495 60.1 133.441 60.0508 133.326C59.5234 131.918 58.5087 131.216 56.9933 131.216H55.7506C54.575 131.216 53.9671 131.318 53.9358 131.527C53.8419 131.966 53.7927 132.611 53.7927 133.446V137.168C53.7927 137.262 54.1414 137.311 54.8432 137.311H56.0859C56.1038 137.311 56.1351 137.311 56.1798 137.311C57.1051 137.311 57.6504 137.271 57.8292 137.191C58.0035 137.111 58.1376 136.835 58.236 136.36C58.2852 136.12 58.3299 135.925 58.379 135.769C58.3969 135.658 58.5221 135.6 58.759 135.6C58.9825 135.6 59.1345 135.64 59.2105 135.72V140.203C59.1479 140.265 58.9959 140.296 58.759 140.296C58.5534 140.296 58.4237 140.234 58.379 140.105C58.2673 139.678 58.1689 139.359 58.0795 139.154C57.9901 138.95 57.9365 138.839 57.9141 138.821C57.8918 138.803 57.8247 138.759 57.713 138.679C57.5074 138.554 56.7743 138.488 55.5182 138.488C54.3738 138.488 53.8017 138.55 53.8017 138.679V142.357C53.8017 143.228 53.8732 143.868 54.0162 144.281C54.0967 144.485 54.6376 144.587 55.6389 144.587H56.5239C57.7666 144.587 58.7143 144.423 59.3624 144.09C59.6172 143.961 59.9033 143.685 60.2207 143.259C60.5381 142.833 60.7839 142.353 60.9627 141.811C60.9806 141.717 61.0879 141.669 61.298 141.669C61.6466 141.669 61.8701 141.717 61.9685 141.811C61.9193 141.953 61.8031 142.277 61.6243 142.784C61.441 143.29 61.3024 143.672 61.2086 143.934C61.1147 144.196 61.0074 144.516 60.9001 144.894C60.7884 145.271 60.7169 145.582 60.6856 145.818C60.0508 145.818 58.7322 145.796 56.734 145.747C54.7359 145.698 53.3323 145.693 52.5232 145.725L49.3495 145.818C49.3003 145.769 49.278 145.645 49.278 145.436C49.278 145.169 49.3003 145.032 49.3495 145.032C49.5551 145.032 49.8591 144.978 50.2569 144.876C50.6548 144.774 50.8872 144.649 50.9498 144.507C51.0615 144.174 51.1152 143.454 51.1152 142.348V133.406C51.1152 132.455 51.0615 131.806 50.9498 131.46C50.9006 131.287 50.6816 131.145 50.2837 131.033C49.8859 130.922 49.5685 130.865 49.3271 130.865C49.2646 130.865 49.2333 130.745 49.2333 130.509C49.2333 130.287 49.2646 130.145 49.3271 130.083C50.3642 130.145 51.4236 130.176 52.4875 130.176Z" fill="#01443A"/>
        <path d="M67.8242 130.141C68.897 130.181 69.7776 130.198 70.4615 130.198C71.1454 130.198 72.0305 130.181 73.1123 130.141C74.194 130.101 75.0612 130.074 75.7139 130.056C76.1117 130.056 76.6615 129.976 77.3588 129.821L77.8103 133.45C77.6986 133.561 77.484 133.619 77.1666 133.619C77.037 133.619 76.961 133.579 76.9297 133.499C76.7062 132.628 76.4112 132.037 76.0446 131.731C75.6781 131.42 75.1059 131.269 74.3281 131.269C72.8485 131.269 72.0752 131.402 72.0126 131.673C71.8696 132.131 71.7981 132.873 71.7981 133.903V142.468C71.7981 143.321 71.8696 144.01 72.0126 144.53C72.0261 144.641 72.2451 144.756 72.6563 144.876C73.072 144.996 73.3492 145.054 73.4922 145.054C73.5548 145.054 73.5861 145.196 73.5861 145.48C73.5861 145.64 73.5682 145.765 73.5369 145.862C73.3313 145.845 73.0229 145.822 72.6161 145.791C72.2093 145.76 71.8383 145.738 71.4941 145.72C71.1499 145.702 70.8236 145.698 70.5018 145.698C70.0726 145.698 69.4781 145.72 68.7227 145.769C67.9672 145.818 67.5023 145.849 67.328 145.862C67.2654 145.8 67.2341 145.671 67.2341 145.48C67.2341 145.196 67.2654 145.054 67.328 145.054C67.5202 145.054 67.8152 145 68.222 144.885C68.6288 144.774 68.8568 144.658 68.9015 144.53C69.0266 144.103 69.0937 143.446 69.0937 142.562V133.974C69.0937 132.659 69.0222 131.895 68.8791 131.673C68.754 131.402 67.9941 131.269 66.6128 131.269C65.835 131.269 65.2584 131.424 64.8963 131.731C64.5297 132.037 64.2258 132.619 63.9889 133.477C63.971 133.57 63.895 133.619 63.752 133.619C63.448 133.619 63.2424 133.557 63.1306 133.428L63.5821 129.821C64.2839 129.981 64.8292 130.056 65.2271 130.056C65.8886 130.074 66.7514 130.101 67.8242 130.141Z" fill="#01443A"/>
        <path d="M80.8947 133.379C80.8947 132.433 80.8322 131.766 80.7025 131.389C80.6399 131.26 80.4165 131.14 80.0365 131.02C79.6565 130.9 79.366 130.842 79.1782 130.842C79.1157 130.842 79.0844 130.723 79.0844 130.487C79.0844 130.234 79.0978 130.092 79.1335 130.061C79.214 130.061 79.6565 130.083 80.4567 130.132C81.2613 130.181 81.8782 130.203 82.3073 130.203C82.4324 130.203 83.4516 130.154 85.3648 130.061C85.414 130.203 85.4363 130.332 85.4363 130.438C85.4363 130.709 85.405 130.842 85.3425 130.842C85.1994 130.842 84.9133 130.905 84.4842 131.033C84.0551 131.158 83.8226 131.278 83.7913 131.389C83.6617 131.878 83.5991 132.575 83.5991 133.477V142.397C83.5991 143.263 83.6707 143.979 83.8137 144.53C83.845 144.641 84.064 144.756 84.4708 144.876C84.8776 144.996 85.1502 145.054 85.2933 145.054C85.3559 145.054 85.3872 145.205 85.3872 145.502C85.3872 145.631 85.3738 145.738 85.338 145.836C83.4293 145.742 82.419 145.693 82.3073 145.693C81.9899 145.693 81.6547 145.702 81.306 145.716C80.9573 145.733 80.5684 145.751 80.1482 145.773C79.7281 145.796 79.3883 145.818 79.1335 145.831C79.071 145.769 79.0397 145.658 79.0397 145.498C79.0397 145.196 79.071 145.049 79.1335 145.049C79.3258 145.049 79.6208 144.996 80.0276 144.88C80.4343 144.769 80.6623 144.654 80.707 144.525C80.8322 144.036 80.8992 143.37 80.8992 142.535V133.379H80.8947Z" fill="#01443A"/>
        <path d="M95.4537 130.105L100.465 142.535C100.702 143.166 100.943 143.743 101.18 144.267C101.274 144.503 101.529 144.694 101.944 144.836C102.36 144.978 102.659 145.049 102.852 145.049C102.914 145.049 102.946 145.191 102.946 145.476C102.946 145.667 102.928 145.782 102.896 145.831C100.988 145.738 99.9864 145.689 99.888 145.689C99.7763 145.689 98.7437 145.738 96.7858 145.831C96.7232 145.769 96.6919 145.622 96.6919 145.391C96.6919 145.16 96.7232 145.045 96.7858 145.045C96.978 145.045 97.2417 144.996 97.5725 144.903C97.9078 144.809 98.1045 144.698 98.1671 144.57C98.2162 144.476 98.2386 144.37 98.2386 144.263C98.2386 143.948 98.0866 143.401 97.7871 142.624L96.9512 140.416C96.8886 140.354 96.8305 140.323 96.7858 140.323C96.2762 140.291 95.5923 140.278 94.734 140.278C93.8758 140.278 92.9684 140.3 92.0118 140.349C91.9179 140.349 91.8687 140.38 91.8687 140.443L90.9613 142.65C90.6618 143.472 90.5098 143.988 90.5098 144.192C90.5098 144.396 90.5992 144.556 90.7736 144.667C90.9166 144.761 91.1669 144.849 91.5245 144.929C91.8821 145.009 92.1235 145.049 92.2532 145.049C92.3023 145.067 92.3247 145.174 92.3247 145.382C92.3247 145.587 92.3068 145.738 92.2755 145.836C92.195 145.836 91.824 145.813 91.1535 145.765C90.483 145.716 89.9421 145.693 89.5309 145.693C89.1152 145.693 88.6279 145.711 88.0647 145.751C87.5015 145.791 87.0992 145.818 86.8578 145.836C86.7952 145.773 86.7639 145.653 86.7639 145.48C86.7639 145.196 86.7818 145.054 86.8131 145.054C87.0053 145.054 87.3093 144.987 87.7339 144.854C88.1541 144.721 88.4223 144.565 88.5341 144.392C88.838 143.916 89.1375 143.299 89.4415 142.544L93.8803 131.869C94.2468 130.922 94.5418 130.349 94.7653 130.158C94.8905 130.047 95.0291 129.989 95.1721 129.989C95.2794 129.985 95.3733 130.025 95.4537 130.105ZM92.5884 138.932C93.1472 138.981 93.7193 139.003 94.3049 139.003C94.8637 139.003 95.5163 138.981 96.2628 138.932L96.312 138.839L94.4971 134.094L92.5392 138.839C92.5437 138.897 92.5571 138.932 92.5884 138.932Z" fill="#01443A"/>
        <path d="M117.317 133.357C117.317 132.517 117.236 131.886 117.08 131.46C116.999 131.269 116.736 131.118 116.28 131.007C115.824 130.896 115.471 130.842 115.216 130.842C115.153 130.842 115.117 130.727 115.109 130.5C115.1 130.269 115.122 130.123 115.171 130.061C116.874 130.172 117.876 130.225 118.179 130.225C118.595 130.225 119.127 130.198 119.78 130.141C120.432 130.087 120.839 130.056 120.996 130.056C121.027 130.118 121.045 130.247 121.045 130.434C121.045 130.705 121.013 130.838 120.951 130.838C120.727 130.838 120.388 130.896 119.923 131.016C119.462 131.136 119.158 131.296 119.015 131.5C118.841 131.926 118.752 132.584 118.752 133.472V142.464C118.752 143.032 118.783 144.139 118.846 145.782C118.783 145.845 118.609 145.876 118.318 145.876C118.063 145.876 117.808 145.693 117.554 145.329L108.055 132.806V142.415C108.055 143.361 108.117 144.01 108.247 144.361C108.327 144.547 108.622 144.712 109.132 144.845C109.642 144.978 109.999 145.045 110.205 145.045C110.254 145.045 110.281 145.156 110.29 145.378C110.299 145.6 110.285 145.751 110.254 145.831C108.345 145.738 107.349 145.689 107.268 145.689C106.839 145.689 106.311 145.707 105.681 145.747C105.051 145.787 104.635 145.813 104.43 145.831C104.367 145.769 104.336 145.631 104.336 145.427C104.336 145.174 104.367 145.049 104.43 145.049C104.698 145.049 105.06 144.992 105.516 144.872C105.972 144.752 106.258 144.574 106.387 144.339C106.548 144.005 106.624 143.343 106.624 142.348V133.05C106.624 132.197 106.535 131.62 106.361 131.318C106.298 131.207 106.021 131.105 105.538 131.007C105.051 130.914 104.698 130.865 104.474 130.865C104.412 130.865 104.376 130.745 104.367 130.509C104.358 130.274 104.389 130.123 104.452 130.061C106.124 130.141 107.067 130.181 107.29 130.181C107.813 130.181 108.533 130.141 109.441 130.061C109.744 130.629 110.294 131.473 111.099 132.588C111.904 133.703 113.003 135.174 114.407 137C115.806 138.825 116.762 140.087 117.272 140.78C117.303 140.589 117.321 140.265 117.321 139.807V133.357H117.317Z" fill="#01443A"/>
        <path d="M130.544 130.154C131.004 130.154 131.536 130.141 132.144 130.118C132.748 130.096 133.288 130.083 133.767 130.083C134.245 130.083 134.719 130.127 135.188 130.212C135.658 130.301 136.127 130.452 136.596 130.674C137.066 130.896 137.481 131.167 137.839 131.491C138.197 131.815 138.492 132.233 138.72 132.735C138.952 133.241 139.068 133.801 139.068 134.419C139.068 135.161 138.872 135.889 138.483 136.6C138.094 137.311 137.504 137.915 136.712 138.417C135.926 138.914 135.036 139.163 134.053 139.163C133.718 139.163 133.382 139.105 133.051 138.985C132.716 138.865 132.488 138.719 132.359 138.546C132.327 138.515 132.301 138.435 132.274 138.31C132.251 138.181 132.247 138.066 132.265 137.955C132.283 137.844 132.305 137.786 132.336 137.786C132.703 137.946 133.145 138.026 133.673 138.026C134.437 138.026 135.041 137.71 135.488 137.089C135.935 136.462 136.158 135.676 136.158 134.73C136.158 133.672 135.944 132.833 135.515 132.215C135.085 131.602 134.424 131.291 133.534 131.291C132.868 131.291 132.403 131.344 132.149 131.46C131.956 131.553 131.862 132.375 131.862 133.926V142.393C131.862 143.339 131.925 144.014 132.055 144.41C132.104 144.601 132.368 144.756 132.855 144.872C133.342 144.992 133.695 145.049 133.919 145.049C133.981 145.049 134.013 145.183 134.013 145.454C134.013 145.627 133.995 145.765 133.963 145.858C132.216 145.765 131.085 145.716 130.575 145.716C130.146 145.716 129.663 145.729 129.131 145.751C128.599 145.773 128.17 145.796 127.853 145.809L127.375 145.858C127.325 145.796 127.303 145.653 127.303 145.431C127.303 145.178 127.325 145.054 127.375 145.054C127.58 145.054 127.889 145 128.295 144.898C128.702 144.796 128.935 144.672 128.997 144.53C129.095 144.245 129.14 143.526 129.14 142.371V133.406C129.14 132.504 129.095 131.855 128.997 131.46C128.952 131.331 128.716 131.202 128.295 131.069C127.875 130.936 127.567 130.865 127.375 130.865C127.312 130.865 127.281 130.745 127.281 130.509C127.281 130.274 127.312 130.127 127.375 130.083C129.037 130.127 130.097 130.154 130.544 130.154Z" fill="#01443A"/>
        <path d="M142.166 133.379C142.166 132.433 142.103 131.766 141.974 131.389C141.911 131.26 141.688 131.14 141.308 131.02C140.923 130.9 140.637 130.842 140.449 130.842C140.387 130.842 140.356 130.723 140.356 130.487C140.356 130.234 140.373 130.092 140.405 130.061C140.485 130.061 140.928 130.083 141.728 130.132C142.532 130.181 143.149 130.203 143.578 130.203C143.704 130.203 144.723 130.154 146.632 130.061C146.681 130.203 146.703 130.332 146.703 130.438C146.703 130.709 146.672 130.842 146.609 130.842C146.466 130.842 146.18 130.905 145.751 131.033C145.322 131.158 145.089 131.278 145.058 131.389C144.928 131.878 144.866 132.575 144.866 133.477V142.397C144.866 143.263 144.937 143.979 145.08 144.53C145.112 144.641 145.331 144.756 145.738 144.876C146.144 144.996 146.417 145.054 146.56 145.054C146.623 145.054 146.654 145.205 146.654 145.502C146.654 145.631 146.636 145.738 146.605 145.836C144.696 145.742 143.686 145.693 143.574 145.693C143.257 145.693 142.921 145.702 142.573 145.716C142.224 145.733 141.835 145.751 141.415 145.773C140.995 145.796 140.655 145.818 140.4 145.831C140.338 145.769 140.306 145.658 140.306 145.498C140.306 145.196 140.338 145.049 140.4 145.049C140.592 145.049 140.888 144.996 141.294 144.88C141.701 144.769 141.929 144.654 141.974 144.525C142.103 144.036 142.166 143.37 142.166 142.535V133.379Z" fill="#01443A"/>
        <path d="M161.021 133.357C161.021 132.517 160.94 131.886 160.784 131.46C160.703 131.269 160.44 131.118 159.984 131.007C159.532 130.896 159.175 130.842 158.92 130.842C158.857 130.842 158.821 130.727 158.812 130.5C158.803 130.269 158.826 130.123 158.871 130.061C160.574 130.172 161.575 130.225 161.879 130.225C162.295 130.225 162.827 130.198 163.479 130.141C164.132 130.087 164.539 130.056 164.695 130.056C164.726 130.118 164.744 130.247 164.744 130.434C164.744 130.705 164.713 130.838 164.65 130.838C164.427 130.838 164.087 130.896 163.627 131.016C163.166 131.136 162.862 131.296 162.719 131.5C162.545 131.926 162.456 132.584 162.456 133.472V142.464C162.456 143.032 162.487 144.139 162.549 145.782C162.487 145.845 162.312 145.876 162.026 145.876C161.772 145.876 161.517 145.693 161.262 145.329L151.763 132.806V142.415C151.763 143.361 151.826 144.01 151.955 144.361C152.036 144.547 152.331 144.712 152.84 144.845C153.35 144.978 153.708 145.045 153.913 145.045C153.962 145.045 153.989 145.156 153.998 145.378C154.007 145.6 153.994 145.751 153.962 145.831C152.054 145.738 151.057 145.689 150.976 145.689C150.547 145.689 150.02 145.707 149.39 145.747C148.759 145.787 148.344 145.813 148.138 145.831C148.075 145.769 148.044 145.631 148.044 145.427C148.044 145.174 148.075 145.049 148.138 145.049C148.406 145.049 148.773 144.992 149.224 144.872C149.676 144.752 149.966 144.574 150.096 144.339C150.252 144.005 150.333 143.343 150.333 142.348V133.05C150.333 132.197 150.243 131.62 150.069 131.318C150.006 131.207 149.729 131.105 149.247 131.007C148.764 130.914 148.406 130.865 148.183 130.865C148.12 130.865 148.084 130.745 148.075 130.509C148.066 130.274 148.093 130.123 148.16 130.061C149.832 130.141 150.78 130.181 150.999 130.181C151.526 130.181 152.241 130.141 153.149 130.061C153.453 130.629 154.007 131.473 154.807 132.588C155.612 133.703 156.712 135.174 158.111 137C159.51 138.825 160.466 140.087 160.976 140.78C161.007 140.589 161.025 140.265 161.025 139.807V133.357H161.021Z" fill="#01443A"/>
        <path d="M169.232 130.176C169.934 130.176 171.168 130.149 172.933 130.092C174.699 130.038 176.036 130.007 176.943 130.007C177.006 130.483 177.131 131.14 177.323 131.989C177.515 132.833 177.618 133.299 177.631 133.375C177.551 133.455 177.386 133.495 177.131 133.495C176.956 133.495 176.845 133.441 176.796 133.326C176.268 131.918 175.253 131.216 173.738 131.216H172.495C171.32 131.216 170.712 131.318 170.68 131.527C170.587 131.966 170.537 132.611 170.537 133.446V137.168C170.537 137.262 170.886 137.311 171.588 137.311H172.831C172.848 137.311 172.88 137.311 172.924 137.311C173.85 137.311 174.395 137.271 174.569 137.191C174.744 137.111 174.878 136.835 174.976 136.36C175.025 136.12 175.07 135.925 175.119 135.769C175.137 135.658 175.262 135.6 175.499 135.6C175.723 135.6 175.875 135.64 175.951 135.72V140.203C175.888 140.265 175.736 140.296 175.499 140.296C175.294 140.296 175.164 140.234 175.119 140.105C175.007 139.678 174.909 139.359 174.82 139.154C174.73 138.95 174.677 138.839 174.65 138.821C174.628 138.803 174.556 138.759 174.449 138.679C174.243 138.554 173.51 138.488 172.254 138.488C171.11 138.488 170.533 138.55 170.533 138.679V142.357C170.533 143.228 170.604 143.868 170.748 144.281C170.828 144.485 171.369 144.587 172.37 144.587H173.255C174.498 144.587 175.441 144.423 176.094 144.09C176.348 143.961 176.635 143.685 176.952 143.259C177.269 142.833 177.515 142.353 177.694 141.811C177.712 141.717 177.819 141.669 178.029 141.669C178.378 141.669 178.601 141.717 178.695 141.811C178.646 141.953 178.53 142.277 178.351 142.784C178.168 143.29 178.029 143.672 177.935 143.934C177.841 144.196 177.734 144.516 177.622 144.894C177.511 145.271 177.439 145.582 177.408 145.818C176.769 145.818 175.454 145.796 173.456 145.747C171.463 145.698 170.055 145.693 169.246 145.725L166.072 145.818C166.023 145.769 166 145.645 166 145.436C166 145.169 166.027 145.032 166.072 145.032C166.277 145.032 166.581 144.978 166.979 144.876C167.377 144.774 167.61 144.649 167.672 144.507C167.784 144.174 167.842 143.454 167.842 142.348V133.406C167.842 132.455 167.788 131.806 167.672 131.46C167.623 131.287 167.404 131.145 167.002 131.033C166.604 130.922 166.286 130.865 166.045 130.865C165.982 130.865 165.947 130.745 165.947 130.509C165.947 130.287 165.978 130.145 166.045 130.083C167.109 130.145 168.168 130.176 169.232 130.176Z" fill="#01443A"/>
        <path d="M180.215 134.139C180.215 132.953 180.716 131.953 181.717 131.136C182.718 130.323 183.849 129.914 185.105 129.914C185.552 129.914 185.941 129.936 186.277 129.985C186.612 130.034 187.077 130.132 187.671 130.283C188.27 130.434 188.677 130.532 188.9 130.58C189.093 131.655 189.187 132.873 189.187 134.232C189.155 134.374 189.057 134.445 188.9 134.445C188.471 134.445 188.239 134.374 188.208 134.232C188.114 133.504 187.77 132.793 187.184 132.095C186.594 131.402 185.879 131.051 185.034 131.051C184.301 131.051 183.742 131.256 183.353 131.669C182.964 132.082 182.767 132.633 182.767 133.33C182.767 133.57 182.794 133.792 182.852 134.005C182.906 134.219 183.018 134.428 183.188 134.632C183.353 134.836 183.492 135.009 183.594 135.143C183.697 135.276 183.898 135.449 184.189 135.654C184.484 135.858 184.685 136 184.788 136.08C184.891 136.16 185.132 136.316 185.503 136.542C185.879 136.773 186.102 136.902 186.183 136.933C186.277 137.013 186.545 137.182 186.983 137.444C187.421 137.706 187.725 137.893 187.904 138.013C188.078 138.132 188.333 138.332 188.668 138.617C189.003 138.901 189.245 139.172 189.397 139.421C189.549 139.674 189.687 139.994 189.812 140.38C189.937 140.767 190.005 141.184 190.005 141.624C190.005 142.89 189.49 143.934 188.467 144.756C187.439 145.578 186.25 145.991 184.9 145.991C183.943 145.991 182.481 145.769 180.506 145.325C180.363 144.756 180.233 144.041 180.112 143.179C179.992 142.317 179.933 141.753 179.933 141.482C179.951 141.353 180.077 141.291 180.318 141.291C180.734 141.291 180.962 141.353 181.011 141.482C181.073 141.766 181.185 142.077 181.342 142.419C181.502 142.761 181.721 143.121 181.999 143.512C182.276 143.899 182.651 144.214 183.121 144.458C183.59 144.703 184.117 144.827 184.708 144.827C185.454 144.827 186.075 144.605 186.572 144.165C187.063 143.721 187.314 143.059 187.314 142.175C187.314 141.904 187.26 141.642 187.157 141.393C187.054 141.14 186.934 140.927 186.8 140.754C186.665 140.58 186.464 140.389 186.205 140.185C185.941 139.981 185.722 139.821 185.548 139.71C185.374 139.598 185.114 139.443 184.775 139.248C184.43 139.048 184.189 138.91 184.046 138.83C183.997 138.781 183.912 138.719 183.782 138.639C183.322 138.355 182.973 138.132 182.732 137.977C182.495 137.817 182.186 137.586 181.815 137.275C181.44 136.964 181.158 136.68 180.966 136.409C180.774 136.142 180.604 135.809 180.452 135.414C180.287 135.023 180.215 134.596 180.215 134.139Z" fill="#01443A"/>
        <path fill-rule="evenodd" clip-rule="evenodd" d="M42.9303 97.1112C43.6857 97.4666 44.468 97.7776 45.1877 98.1907C46.7433 99.0792 46.9578 99.1014 48.5492 98.1152C48.7593 98.746 48.9515 99.328 49.2465 100.221C49.8053 100.128 50.6188 99.9988 51.4279 99.8655C51.4011 99.6745 51.3742 99.4879 51.343 99.2969C53.1042 99.8966 54.9011 102.007 56.5282 99.1192C56.9708 99.3946 57.315 99.6079 57.7173 99.8522C58.0793 99.2436 58.3922 98.7283 58.723 98.173C57.7262 96.8758 56.9842 95.5209 58.3878 93.9216C58.2671 93.8194 58.1464 93.7172 58.0257 93.6151C57.3909 94.006 56.7741 94.4191 56.117 94.7656C55.8085 94.93 55.4331 95.0322 55.0889 95.0366C52.4292 95.081 49.8723 94.6057 47.5702 93.2419C46.9355 92.8643 46.4929 92.1624 45.9565 91.6204C45.6302 91.2917 45.2413 91.0118 44.9552 90.652C44.4993 90.0789 44.1015 89.457 43.6768 88.8572C44.249 88.7639 44.8703 88.4752 45.3844 88.604C47.1545 89.0527 48.8934 89.6435 50.735 90.2122C51.106 88.8572 50.3774 87.6356 49.394 86.5338C48.567 85.6098 47.5523 84.8413 46.8193 83.8551C46.1666 82.9755 45.7867 81.896 45.2905 80.9053C45.4469 80.8076 45.5989 80.7098 45.7554 80.6121C46.6762 81.0075 47.597 81.4073 48.4598 81.776C49.1437 80.9675 49.8231 80.1634 50.4936 79.3727C52.7734 80.0923 55.0218 80.8165 57.2747 81.5095C58.8795 82.0026 60.3993 81.8427 61.8655 80.9453C62.1829 80.7543 63.0322 80.7809 63.1171 80.9542C63.6937 82.1581 64.3553 81.4162 64.8157 81.0075C65.3879 80.501 66.2953 80.0124 65.6472 78.9462C65.3611 78.4709 65.1733 77.9333 64.8917 77.3203C64.1631 77.5602 63.2691 77.5557 63.7653 78.8129C63.8368 78.9906 63.4211 79.5992 63.2512 79.5903C61.4945 79.5015 59.7333 79.3771 57.9989 79.1195C57.7262 79.0795 57.5608 78.3154 57.2792 77.7467C53.3053 78.5819 48.2631 75.7432 48.1469 71.9716C50.069 72.9578 51.857 73.8774 53.7613 74.8547C53.0192 72.5358 50.3014 71.1231 50.811 68.2089C51.182 68.1245 51.6201 68.0267 52.1923 67.8979C51.4055 65.9655 50.6546 64.1174 49.7471 61.8962C51.0882 62.5226 52.3174 62.7625 53.0282 63.4999C54.3066 64.8326 56.0276 64.8904 57.5385 65.5123C58.5979 65.9477 59.1119 65.6545 59.3757 64.2507C59.7333 62.3849 58.9957 61.5541 57.6413 60.5857C55.4688 59.0353 53.8328 56.9873 52.8315 54.3308C54.9995 54.0909 56.3539 55.3614 57.9586 56.1255C59.4159 56.8185 61.1592 56.9118 62.9875 57.3116C63.1797 57.1473 63.5954 56.7874 64.0156 56.4276C62.7997 53.9621 59.1834 55.197 58.1062 52.4427C59.6528 51.6653 59.1566 50.4792 58.4459 49.5507C57.9139 48.8533 56.9618 48.4712 56.2913 47.8182C54.0116 47.5561 53.8462 47.3695 53.8596 44.4819C55.0084 45.2638 55.9739 45.9213 57.0512 46.6543C57.0244 46.3078 57.0021 46.0012 56.9439 45.1972C59.9702 46.1701 62.8265 47.0896 65.6784 48.0092C65.7097 47.8982 65.7455 47.7826 65.7768 47.6716C65.1376 46.7964 64.5028 45.9257 63.8055 44.9706C59.5545 45.1083 56.2645 42.6961 55.5359 38.4136C56.555 38.9511 57.3641 39.3509 58.1464 39.7952C58.5845 40.044 58.9555 40.4527 59.4159 40.6259C59.8271 40.7814 60.3233 40.7192 60.7793 40.7503C60.6139 40.2661 60.5647 39.6797 60.2563 39.3154C59.6796 38.6357 58.951 38.0849 58.285 37.4807C58.4012 37.3119 58.5174 37.1475 58.6292 36.9831C60.5379 37.8938 62.4466 38.8045 64.5833 39.8218C64.5833 38.7734 64.5833 38.1337 64.5833 37.5029C59.7958 36.9565 58.5532 36.2368 58.2492 33.6291C59.103 34.2377 59.8271 34.753 60.8821 35.5038C60.4216 34.2511 60.1043 33.3937 59.7914 32.5318C59.8897 32.4741 59.9881 32.4208 60.0909 32.363C61.3827 33.4958 62.6746 34.6242 64.0156 35.797C64.4313 34.5665 64.4 34.5976 63.126 33.4559C62.3572 32.7673 61.0877 32.1809 62.2007 30.5594C62.7059 31.359 63.135 32.0387 63.5641 32.7184C63.7071 32.6873 63.8502 32.6562 63.9977 32.6251C63.7965 31.9899 63.7071 31.288 63.3808 30.7238C62.5807 29.3511 62.384 28.3471 63.9485 27.1876C64.8783 26.499 65.2359 25.0464 65.9109 23.8291C66.3668 25.1708 66.8004 26.4413 67.2296 27.7163C67.4307 27.6896 67.6363 27.6585 67.8375 27.6319C67.9716 27.081 68.1102 26.5346 68.289 25.806C70.3407 27.2898 68.9863 29.4044 69.5495 31.4168C70.1127 30.5461 70.5642 29.8486 71.1409 28.9557C72.0125 31.0525 70.3318 32.1231 69.402 33.598C71.7354 34.4199 72.0796 32.3364 73.0719 31.2746C73.5726 31.8966 74.0464 32.4785 74.5202 33.0605C74.7124 33.0249 74.9091 32.9894 75.1013 32.9539C74.4129 34.6198 73.7246 36.2857 73.0406 37.9516C73.2284 38.0315 73.4161 38.1115 73.6039 38.1915C74.033 37.3785 74.4666 36.57 74.9225 35.7082C77.0279 37.5651 75.9864 42.0475 73.2016 44.8684C73.4429 46.1301 73.6396 47.1652 73.8631 48.3335C75.3606 47.2851 77.0056 46.1301 78.6506 44.9795C78.8204 45.1128 78.9858 45.2416 79.1557 45.3749C78.5746 46.3033 78.1365 47.3739 77.3811 48.1336C75.6199 49.9106 73.4117 50.5325 70.8816 50.3237C69.9876 50.2482 68.4499 50.4836 68.2487 50.9856C67.7838 52.1584 67.9269 53.58 67.9001 54.9038C67.8956 55.0193 68.4588 55.2859 68.7181 55.2459C70.2156 55.0149 71.8382 54.9883 73.1613 54.3619C74.4353 53.7577 75.4142 52.5227 76.5049 51.5409C76.7508 51.3188 76.9251 51.0256 77.1799 50.7013C78.6059 51.5587 77.685 52.5227 77.2693 53.8288C78.2661 53.1535 78.9992 52.6515 80.1257 51.883C79.853 52.6204 79.7681 52.9536 79.6072 53.2513C79.5043 53.4423 79.1512 53.58 79.1602 53.731C79.2406 55.5258 77.913 56.4765 76.8536 57.5782C76.5586 57.8847 76.1473 58.0802 75.8121 58.3512C75.3964 58.6888 75.003 59.0531 74.6007 59.404C75.0388 59.7727 75.4724 60.1459 75.9194 60.5057C76.125 60.6745 76.3574 60.8123 76.5318 60.9322C77.9175 59.7905 79.2764 58.671 80.5503 57.6182C80.3984 56.7252 80.2509 55.8856 80.1078 55.046C80.233 54.9705 80.3581 54.8994 80.4833 54.8239C81.1359 55.2726 81.7885 55.7212 82.8122 56.4187C81.8601 54.7306 81.1136 53.3979 80.2956 51.9452C82.8122 51.1544 83.6749 53.4423 85.0741 54.1842C85.5211 53.5223 85.9457 52.8959 86.3704 52.2695C86.576 52.4561 86.7816 52.6427 86.9917 52.8248C87.1079 53.2379 87.2242 53.6511 87.3851 54.2108C88.2746 53.9087 89.0882 53.6333 89.9017 53.3579C89.638 51.2522 89.1642 50.8657 87.1705 50.7502C86.643 50.7191 86.1424 50.2748 85.7714 49.8528C85.0964 49.7284 84.0057 49.8173 83.818 49.4486C82.6602 47.1874 79.9961 45.6148 80.4386 42.4251C82.6736 43.2292 83.666 46.33 86.5447 45.366C87.0364 46.7787 87.8947 46.9164 90.0179 45.8991C90.0984 46.2145 90.1744 46.5077 90.2772 46.9253C90.6348 46.6409 90.9522 46.3922 91.3053 46.1123C89.4681 43.6023 86.9068 43.2203 84.6539 43.2958C83.6704 42.6206 83.0402 41.8298 82.4099 41.8298C81.1136 41.8343 80.6755 41.2345 80.3134 40.1772C80.0452 39.3954 79.4731 38.7201 79.111 37.9605C78.9679 37.6584 79.0395 37.2586 79.0126 36.8987C79.3434 36.9698 79.6876 37.0009 79.9961 37.1164C81.0286 37.5162 82.0523 37.9471 83.4022 38.498C83.6168 39.2088 83.9565 40.4127 85.4406 39.7197C85.8384 40.5015 86.1558 41.1279 86.5268 41.8609C86.9202 41.5855 87.1973 41.4211 87.4387 41.2168C87.9081 40.8214 88.3595 40.4038 88.82 39.9951C88.4087 39.582 88.0109 39.1555 87.5817 38.7601C86.5715 37.8361 85.5345 36.9432 84.5332 36.0103C84.3857 35.8725 84.2247 35.5527 84.2873 35.4239C84.8595 34.2644 84.1934 33.5447 83.4693 32.7895C83.286 32.5985 83.3307 32.1942 83.1966 31.4923C84.2381 32.2919 84.9936 32.8695 85.9994 33.6424C85.7088 32.2964 84.7656 31.1902 85.7803 30.3062C87.3672 31.79 88.8691 33.1938 90.389 34.6109C92.4541 33.0783 93.8667 35.6282 95.8871 35.2062C95.8871 33.8201 96.0168 32.4208 95.8514 31.057C95.677 29.6309 94.555 29.5599 93.299 29.5154C91.5333 29.4532 89.6827 29.3422 88.0466 28.7513C85.8608 27.965 84.6315 25.9837 84.265 23.3582C86.2229 24.842 87.9349 26.1481 89.6335 27.4364C89.8302 26.2414 90.0224 25.0686 90.2861 23.4782C88.0466 21.5146 87.1884 18.4094 87.4655 14.9399C87.5102 14.3668 87.9885 13.8293 88.2701 13.274C88.5875 13.7449 88.9272 14.2024 89.2178 14.6911C89.4502 15.0865 89.6246 15.5218 89.8213 15.9394C90.0448 15.855 90.2727 15.7706 90.5007 15.6906C89.7766 13.8337 89.0524 11.9768 88.4579 10.453C89.267 9.51124 89.8525 8.83155 90.4694 8.11632C91.426 9.21804 91.7166 11.4037 94.3003 10.844C93.299 9.07588 91.5556 7.78314 92.4765 5.45531C93.0308 6.4593 93.4733 7.25449 94.0544 8.31178C94.8143 6.08169 93.1917 3.64281 95.3865 1.95913C95.5966 2.71434 95.7709 3.34072 95.9452 3.9671C96.1553 3.98487 96.3654 4.00264 96.5755 4.02485C97.0046 2.56774 97.4338 1.11063 97.769 -0.0221863C98.8329 1.46158 99.9996 2.95423 100.987 4.55794C101.265 5.00663 101.139 5.81515 100.97 6.3971C100.661 7.48105 100.187 8.51614 99.7806 9.57343C99.9415 9.64895 100.107 9.72003 100.268 9.79555C100.706 9.01813 101.148 8.24071 101.586 7.46773C101.805 7.52992 102.025 7.59656 102.244 7.65875C102.074 8.32067 102.051 9.07144 101.703 9.6223C101.291 10.2709 100.536 10.6885 100.053 11.3015C99.709 11.7413 99.5705 12.3411 99.338 12.8697C99.5123 12.9763 99.6822 13.0829 99.8565 13.1896C101.18 11.9412 102.503 10.6885 103.826 9.44016C103.947 9.4757 104.072 9.51124 104.193 9.54678C103.893 10.493 103.589 11.4437 103.169 12.7586C104.188 12.0168 104.979 11.4392 105.905 10.7684C105.717 13.6427 103.781 14.8777 99.3201 15.1087C99.2754 15.8284 99.2307 16.5614 99.1547 17.8674C101.533 16.6058 103.513 15.5529 105.489 14.5001C105.618 14.6245 105.748 14.7533 105.878 14.8777C105.444 15.4419 105.042 16.0283 104.568 16.5614C104.197 16.9789 103.652 17.2633 103.366 17.7208C103.178 18.0229 103.312 18.5249 103.303 18.938C103.67 18.9025 104.112 18.9869 104.394 18.8181C105.158 18.3472 105.824 17.7253 106.588 17.2499C107.183 16.8768 107.862 16.6324 108.587 16.2948C108.493 20.4618 104.742 23.5448 100.098 23.5759C99.3738 24.651 98.6809 25.6772 97.9925 26.6989C98.0193 26.8278 98.0417 26.9566 98.0685 27.0854C101.037 26.037 104.009 24.9886 107.371 23.8025C107.192 24.7576 107.129 25.0997 107.035 25.615C108.26 24.6732 109.306 23.8647 110.473 22.9718C110.576 26.1481 110.267 26.579 107.934 26.5968C107.862 26.9744 107.786 27.3786 107.697 27.8717C105.779 27.1654 105.636 28.6891 105.234 29.7864C104.8 30.9726 104.97 31.2702 106.079 31.8877C105.744 33.5181 104.443 33.9579 103.079 34.4598C101.89 34.8996 100.804 35.6104 99.4855 36.299C100.299 37.032 100.701 37.3963 100.858 37.534C102.065 37.3296 103.053 37.2141 104.014 36.9743C104.845 36.7655 105.744 36.5567 106.436 36.0902C107.929 35.0818 109.329 33.9579 111.559 34.2111C110.424 37.2763 108.627 39.6308 106.244 41.5766C104.702 42.8382 104.036 44.6374 104.845 46.3122C105.037 46.712 106.276 46.8764 106.942 46.7387C108.779 46.3478 110.428 45.5215 111.877 44.2509C112.552 43.6601 113.535 43.4158 114.733 42.8427C113.794 45.3438 112.994 47.4584 112.145 49.724C112.73 49.724 113.142 49.724 113.562 49.724C114.299 52.9359 111.613 54.7617 110.576 57.3871C112.543 56.3076 114.331 55.3259 116.137 54.3352C117.692 58.4755 110.303 61.412 106.419 60.6079C106.651 60.99 106.816 61.2609 107.031 61.6163C105.846 62.4604 104.872 63.9575 103.097 62.5626C102.963 62.456 102.583 62.6514 102.32 62.7092C100.581 63.0823 100.625 63.0735 100.245 61.2254C100.165 60.8478 99.5928 60.5679 99.2307 60.2303C97.4159 63.0379 97.6439 64.0197 100.357 65.1125C101.063 63.0335 102.27 64.6905 103.29 64.7749C104.273 64.8593 105.31 65.3702 106.2 65.1658C108.166 64.7127 110.071 63.9664 111.975 63.26C112.771 62.9668 113.942 62.8247 113.307 61.1143C114.46 62.6647 116.543 61.8962 117.419 63.6643C117.674 64.1752 119.552 63.5488 119.109 65.6723C119.994 64.997 120.531 64.5883 121.071 64.1796C120.647 63.7265 119.999 63.34 119.842 62.8069C119.431 61.4164 116.946 61.4031 117.598 59.2885C117.719 58.902 116.968 58.2534 116.852 57.5027C117.419 57.8714 117.987 58.2401 118.613 58.6444C118.613 57.7825 118.613 57.0273 118.613 56.0944C119.011 56.3343 119.212 56.3832 119.279 56.5076C120.866 59.2485 123.767 59.4795 126.798 60.3725C126.731 59.0353 126.82 57.827 126.579 56.6853C126.31 55.428 125.26 55.6057 124.241 55.7657C121.067 56.2543 118.17 54.2597 117.571 50.959C118.416 51.5321 119.105 51.9674 119.748 52.4561C120.414 52.9581 121.036 53.5178 121.729 54.0909C121.894 53.0025 122.041 52.0651 122.229 50.8435C120.012 48.2758 119.234 44.7751 120.772 42.6339C121.206 43.4246 121.594 44.1265 121.979 44.8329C122.131 44.7707 122.283 44.7085 122.435 44.6463C121.885 43.2514 121.331 41.8565 120.817 40.5548C121.38 39.9151 121.872 39.3554 122.363 38.7912C123.257 39.4975 123.342 41.4033 125.202 40.888C124.621 39.5509 124.075 38.3114 123.534 37.0675C123.718 36.9787 123.901 36.8943 124.089 36.8054C124.433 37.3874 124.782 37.9694 125.354 38.9289C125.461 37.0009 125.542 35.4949 125.626 33.989C125.832 33.9845 126.038 33.9756 126.243 33.9712C126.418 34.4243 126.592 34.8774 126.766 35.3261C126.936 35.3572 127.102 35.3839 127.267 35.415C127.593 34.3221 127.92 33.2293 128.21 32.2564C129.064 33.4647 129.998 34.6598 130.763 35.9525C130.986 36.3301 130.807 37.0142 130.66 37.5162C130.436 38.2937 130.083 39.0311 129.784 39.7863C129.918 39.8529 130.047 39.9151 130.181 39.9818C130.526 39.4176 130.87 38.8578 131.348 38.076C132.166 39.2976 131.37 39.8307 130.807 40.4616C130.289 41.0346 129.837 41.6654 129.359 42.2696C129.52 42.4118 129.676 42.5584 129.837 42.705C130.91 41.7188 131.987 40.7325 133.06 39.7463C133.145 39.7863 133.234 39.8218 133.319 39.8618C133.096 40.5548 132.877 41.2479 132.555 42.2607C133.284 41.7765 133.865 41.39 134.473 40.9902C134.54 43.0915 133.024 44.0732 129.413 44.1799C129.381 44.7751 129.354 45.3882 129.305 46.3433C130.405 45.8235 131.205 45.4726 131.983 45.0683C132.761 44.6641 133.512 44.2065 134.571 44.0599C133.82 45.0595 133.069 46.0546 132.318 47.0541C132.475 47.2051 132.627 47.3517 132.783 47.5028C134.066 46.752 135.353 46.0012 136.842 45.1261C136.189 48.9688 134.021 50.728 130.025 51.0345C129.484 51.8475 128.966 52.616 128.157 53.8243C129.605 53.3357 130.673 52.9714 131.742 52.6071C132.801 52.2473 133.847 51.8341 134.924 51.5543C135.17 51.4921 135.532 51.883 136.082 52.2073C136.524 51.8608 137.329 51.2255 138.138 50.5903C138.134 51.8652 138.71 53.1669 136.623 53.4689C135.747 53.5933 134.173 54.4285 134.088 56.0233C134.07 56.3565 133.914 56.8141 134.07 57.0007C135.639 58.8265 133.717 58.9287 132.828 59.4351C131.858 59.986 130.798 60.3813 129.506 60.9677C130.235 61.6163 130.593 61.9317 130.977 62.2738C131.165 62.1228 131.29 61.9362 131.411 61.9406C133.959 61.9939 135.778 60.2347 137.955 59.3774C138.241 59.2663 138.612 59.3596 139.104 59.3596C138.286 61.8918 136.851 63.9042 134.786 65.2858C133.167 66.3697 133.771 67.7024 133.851 69.013C133.865 69.2351 134.517 69.666 134.736 69.5905C135.921 69.1907 137.088 68.7286 138.201 68.1645C139.247 67.6314 140.208 66.9428 141.531 66.543C140.927 68.1778 140.32 69.8126 139.716 71.4474C139.89 71.4385 140.069 71.4296 140.244 71.4163C140.413 71.9716 140.829 72.5891 140.704 73.0689C140.454 74.0151 139.922 74.8947 139.484 75.7876C139.229 76.2985 138.92 76.7783 138.885 77.4758C140.185 76.7739 141.486 76.0675 142.952 75.2768C143.109 77.0759 142.47 78.2798 141.124 78.9329C139.904 79.5237 138.523 79.7769 137.244 80.2612C136.489 80.5455 135.55 80.3278 135.054 81.434C134.844 81.9004 133.623 81.9359 132.85 82.1136C132.676 82.1536 132.421 81.856 132.256 81.9048C130.977 82.2558 129.833 82.4646 129.967 80.5144C129.971 80.4211 129.605 80.3011 129.413 80.1945C127.92 82.1492 127.982 82.5312 130.007 83.8862C130.034 83.7262 130.061 83.5663 130.083 83.4019C130.798 83.4508 131.688 83.2465 132.189 83.5974C133.445 84.4814 134.665 84.0905 135.845 83.744C137.57 83.2376 139.238 82.5223 141.039 81.8515C141.531 82.5001 142.094 83.2376 142.698 84.0328C143.453 83.6951 144.244 83.3442 145.138 82.9444C145.29 85.1078 143.833 86.2318 142.698 87.5067C141.598 88.7417 140.53 89.9589 140.834 91.6382C142.675 91.0118 144.504 90.3943 146.327 89.7768C146.457 89.9589 146.587 90.1366 146.716 90.3188C145.572 92.3578 144.289 94.277 141.857 95.1743C139.488 96.0495 137.119 96.6892 135.17 94.9345C134.902 96.2005 134.576 97.3822 134.428 98.5861C134.37 99.0615 134.714 99.5812 134.884 100.097C135.402 100.017 136.069 99.7722 136.171 99.9188C137.579 101.936 138.885 100.47 139.801 100.039C140.807 100.328 141.482 100.523 142.125 100.705C142.327 99.9233 142.47 99.3724 142.622 98.7816C143.654 99.3591 143.922 99.3013 147.069 97.9286C147.288 99.8522 146.394 101.447 144.535 102.091C143.556 102.429 142.97 102.775 142.747 103.935C142.385 105.792 140.775 106.734 138.844 106.574C138.621 106.556 138.393 106.574 138.169 106.605C135.751 106.987 135.751 106.991 134.339 106.098C132.564 107.022 130.919 107.875 129.001 108.875C129.001 112.278 129.001 116.196 129.001 120.23C128.188 120.23 127.441 120.23 126.543 120.23C126.543 117.924 126.588 115.689 126.529 113.459C126.471 111.22 126.395 108.972 126.136 106.747C126.069 106.187 125.287 105.712 124.831 105.196L124.817 105.183C125.215 104.73 125.618 104.281 125.993 103.85C124.567 102.633 123.052 101.336 121.84 100.296C120.911 100.145 120.262 99.9677 119.61 99.9544C119.002 99.9411 118.367 98.906 117.679 100.234C117.419 100.732 115.721 100.496 114.675 100.594C114.661 100.408 114.648 100.225 114.635 100.039C114.97 99.9988 115.296 99.9588 115.631 99.9188C114.201 98.9149 112.502 100.976 111.206 99.3369C110.303 98.1996 109.476 97.0046 108.613 95.8363C108.716 95.7385 108.823 95.6364 108.926 95.5386C109.311 95.6541 109.695 95.7741 110.08 95.8896C110.196 95.7741 110.312 95.6586 110.424 95.5431C109.945 95.0855 109.195 94.1481 109.029 94.2414C107.183 95.281 106.495 93.4507 105.247 92.8376C103.321 94.2192 101.73 96.436 98.8329 95.8807C98.8329 104.29 98.8329 112.691 98.8329 121.114C96.3163 121.78 95.8827 121.651 95.7888 119.132C95.5966 114.135 95.7039 109.124 95.6145 104.121C95.5563 100.758 95.4267 97.3911 95.2256 94.0326C95.1809 93.273 94.6891 92.5444 94.3226 91.5938C93.3481 92.7266 92.6195 93.5751 91.7568 94.5791C91.8104 94.7568 91.949 95.2277 91.9579 95.2721C90.5767 95.8096 89.2938 96.2983 88.0198 96.8047C87.8187 96.8847 87.5639 97.0046 87.4789 97.1779C86.4106 99.408 85.3601 99.8433 83.2592 99.0481C82.687 98.8349 81.9942 98.9326 81.3594 98.8838C81.3505 99.0615 81.3371 99.2347 81.3281 99.408C81.7394 99.4702 82.1506 99.5279 82.5619 99.5857C82.5619 99.7545 82.5574 99.9233 82.5574 100.092C81.9852 100.092 81.3147 100.283 80.8543 100.052C80.0005 99.6256 78.7534 100.399 78.1365 99.1325C78.0784 99.0126 76.7463 99.2036 76.3574 99.599C75.4187 100.554 74.9628 99.9544 74.337 99.3635C72.5132 100.803 70.591 102.327 68.6019 103.899C70.3675 105.427 72.7277 105.325 74.9896 105.556C75.45 105.605 75.9953 105.592 76.344 105.832C77.8549 106.871 78.9635 106.876 80.5146 105.645C80.6844 106.116 80.8498 106.556 81.127 107.311C83.0402 105.392 85.7311 105.898 87.8097 104.637C88.5473 106.2 88.2076 106.56 85.6775 106.991C84.7075 110.709 82.3473 108.524 80.2911 107.96C80.2419 108.684 80.2017 109.203 80.1436 110.056C77.5241 107.729 74.5292 108.559 72.2137 108.604C71.2437 107.244 70.4793 106.174 69.7104 105.099C69.4959 105.103 69.2858 105.108 69.0712 105.112C68.7449 106.587 68.1951 108.053 68.137 109.537C68.0073 112.851 68.1191 116.174 68.1459 119.492C68.1683 122.282 68.1772 122.282 65.142 121.944C65.142 117.595 65.142 113.233 65.142 108.773C63.0635 109.026 61.3604 108.217 60.1087 106.862C59.0225 105.685 57.686 106.374 57.4446 106.858C56.8948 107.946 56.3271 107.404 55.6789 107.351C54.4765 107.253 53.2696 107.133 52.0671 107.173C50.9496 107.209 48.7458 105.436 48.4374 103.824C48.2139 102.664 47.7758 102.127 46.5734 101.909C44.6647 101.563 43.7394 100.03 42.9571 98.4306C42.9303 98.0086 42.9303 97.5599 42.9303 97.1112ZM121.831 84.0683C122.636 83.9661 123.333 83.8773 124.022 83.7929C124.062 84.286 124.08 84.5658 124.125 85.1389C125.13 84.4681 125.904 83.9528 126.811 83.3486C125.609 82.7889 124.612 82.5934 124.031 82.0026C121.617 79.5504 117.942 81.3407 115.417 79.3638C115.323 79.2927 115.015 79.5282 114.795 79.5726C113.41 79.8613 112.033 80.3056 110.638 80.3589C109.682 80.3944 108.6 80.6654 107.684 79.5504C107.196 78.9551 105.797 79.0972 104.814 78.9062C104.787 79.0706 104.765 79.235 104.738 79.3993C106.718 80.1101 107.022 80.9275 106.034 82.8822C105.909 83.131 105.583 83.3975 105.627 83.5974C105.793 84.3393 106.07 85.0545 106.334 85.8586C106.955 85.4943 107.322 85.2811 107.652 85.0901C109.494 86.8892 110.218 87.0492 111.577 86.0896C112.136 85.6942 112.739 85.3655 112.976 85.2189C113.723 85.752 114.152 86.0585 114.576 86.365C114.684 86.2362 114.787 86.1118 114.894 85.983C114.165 84.8679 113.437 83.7529 112.739 82.6823C113.151 82.1758 113.459 81.7938 113.794 81.3762C114.42 81.7938 115.05 82.1714 115.631 82.6156C117.375 83.935 119.109 85.0145 121.058 82.9399C121.179 82.8111 121.429 82.8022 121.684 82.7178C121.733 83.2065 121.778 83.5885 121.831 84.0683ZM79.2183 91.5182C78.4941 91.4205 78.0158 91.3139 77.5331 91.3183C77.4436 91.3183 77.3587 91.7759 77.2738 92.0202C77.7744 92.1846 78.2751 92.4689 78.7802 92.4822C79.5446 92.5044 80.309 92.3401 81.1717 92.2423C81.4041 92.5267 81.7394 92.9443 82.0791 93.3574C82.0568 93.193 82.0344 93.0287 82.0121 92.8643C84.2158 92.1313 86.4195 91.3983 88.7574 90.6164C88.9898 91.1584 89.2223 91.6959 89.4458 92.2157C91.5109 91.8825 93.6968 92.0469 95.0646 90.4121C93.0397 88.6706 91.0952 86.9959 89.1284 85.3033C88.4668 85.8053 87.8142 86.8315 86.8308 85.3655C86.652 85.0989 85.3601 85.2455 84.8505 85.592C83.7911 86.3162 83.7911 88.3686 81.7841 88.0043C81.6634 87.9821 81.4578 88.4174 81.2968 88.6395C80.5772 89.6435 79.853 90.6386 79.2183 91.5182ZM95.6189 64.384C93.8488 63.3933 92.2708 62.4737 90.6572 61.6252C89.8749 61.2121 88.8736 60.4791 88.221 60.6834C86.2094 61.3098 84.5019 60.7145 83.1743 60.0171C82.2981 60.448 81.7885 60.759 81.2343 60.9544C80.6174 61.1765 79.9603 61.292 78.9769 61.5408C79.8575 62.0783 80.3313 62.3671 80.7917 62.647C81.3684 62.2783 81.9092 61.9317 82.611 61.4831C82.6557 62.5004 82.4456 63.3889 82.772 63.9797C83.5766 65.419 87.5505 66.3653 89.1552 65.7611C90.1833 65.3746 91.274 65.1614 92.5033 64.8238C92.5033 65.5079 92.5033 65.9121 92.5033 66.4808C93.7817 65.8544 95.2434 65.77 95.6189 64.384ZM108.019 88.2753C107.344 90.5853 105.887 89.2393 104.626 89.1327C104.733 88.6929 104.805 88.3819 104.881 88.0709C104.702 88.0132 104.528 87.951 104.349 87.8888C104.081 88.5907 103.602 89.2926 103.602 89.9945C103.602 90.8474 104.336 90.8785 105.095 90.7319C105.422 90.6742 105.864 90.9141 106.173 91.1317C107.268 91.8914 108.323 92.1224 109.23 91.0518C109.95 91.4738 110.549 91.8248 110.893 92.0291C111.443 91.2872 111.841 90.7541 112.431 89.9545C112.368 89.9101 111.939 89.3548 111.649 89.417C111.036 89.5502 110.5 90.0078 109.802 90.4121C109.731 89.9501 109.633 89.2926 109.53 88.6129C109.06 88.5107 108.569 88.3997 108.019 88.2753ZM54.5033 104.748C55.6387 104.828 56.4254 104.988 57.1809 104.908C58.0346 104.814 58.8974 104.579 59.6886 104.246C60.0328 104.099 60.4351 103.526 60.3948 103.193C60.3367 102.686 59.9165 102.22 59.6483 101.736C59.5321 101.785 59.4159 101.834 59.2997 101.878C59.3354 102.162 59.3712 102.447 59.4069 102.762C58.2 102.966 56.8724 103.917 55.9248 101.682C55.1961 102.655 54.6776 103.357 54.101 104.13C53.9311 103.695 53.7791 103.313 53.5869 102.815C52.8851 103.055 52.2638 103.264 51.6469 103.473C51.5977 103.695 51.5486 103.917 51.5039 104.135C53.2606 103.402 52.9119 104.721 53.2338 105.499C53.8328 105.148 54.3513 104.841 54.5033 104.748ZM73.6486 81.7627C73.4787 80.9942 73.3267 80.3322 73.1435 79.5059C73.9525 79.8436 74.4711 80.0612 74.9941 80.2789C75.1147 80.1368 75.2399 79.9946 75.3606 79.8525C74.86 79.2172 74.3548 78.5819 73.8944 78C71.8516 79.0439 69.9876 79.9946 67.7838 81.1185C68.879 81.7272 69.8356 82.2602 70.9621 82.8866C71.0515 82.2247 71.0962 81.8826 71.1498 81.4784C72.0304 81.5806 72.8082 81.665 73.6486 81.7627ZM120.821 72.9134C119.064 72.0738 117.397 71.2741 115.466 70.3501C114.407 71.4607 113.352 73.0333 113.709 75.1657C113.884 75.2146 114.053 75.259 114.228 75.3079C114.384 74.6371 114.541 73.9662 114.626 73.5975C116.762 73.3621 118.841 73.1311 120.821 72.9134ZM93.2319 74.2328C94.2645 73.291 95.3954 72.558 96.0972 71.5362C96.8392 70.4523 96.1732 68.7953 95.3463 68.3466C94.8411 68.9419 94.4701 69.5727 93.9292 69.9903C92.396 71.1586 92.1278 72.4469 93.2319 74.2328ZM83.0268 74.9347C82.164 76.0586 81.3684 77.0937 80.5772 78.1288C80.8141 78.7818 80.9616 78.7641 82.1953 76.996C82.3965 77.3425 82.5887 77.9511 82.7898 77.9555C83.7286 77.9733 84.703 77.9244 85.597 77.6668C85.8116 77.6046 85.758 76.6406 85.8295 76.0942C85.2663 76.1564 84.7075 76.2186 84.0325 76.2941C83.6928 75.8365 83.2369 75.2146 83.0268 74.9347ZM78.4271 71.8916C78.5075 71.5718 78.9277 70.8877 78.7579 70.4168C78.2706 69.0751 76.6569 68.3377 75.1237 68.8752C74.1805 69.204 73.3357 70.0125 73.5636 71.2875C74.404 71.5007 75.1505 71.6873 75.9819 71.8961C76.1205 71.4652 76.2457 71.0787 76.3664 70.6877C76.5586 70.5411 76.7508 70.3945 76.9475 70.2435C77.3989 70.7544 77.8549 71.2564 78.4271 71.8916ZM72.6964 65.1658C73.4429 65.0992 73.9302 65.0237 74.4174 65.0237C75.0835 65.0281 75.7495 65.0903 76.4155 65.1303C76.4692 63.5843 77.7968 64.6949 78.1902 64.3706C78.4539 63.5888 78.6506 63.0157 78.8741 62.3538C76.3127 62.2249 74.0375 62.6736 72.2763 64.7127C72.54 64.997 72.7546 65.228 72.6964 65.1658ZM137.655 103.69C137.414 102.975 137.486 101.305 135.747 103.06C135.438 103.371 134.213 102.789 133.083 102.549C133.074 102.771 132.837 103.828 133.051 103.93C134.111 104.423 135.277 104.739 136.435 104.961C137.186 105.108 137.986 104.988 138.679 104.988C139.059 104.583 139.484 104.126 139.908 103.673C139.895 103.535 139.886 103.402 139.873 103.264C139.193 103.397 138.505 103.531 137.655 103.69ZM68.3426 84.4859C66.8854 85.5476 66.3713 86.9425 70.4525 89.5813C71.351 87.7599 71.1006 86.7693 69.6032 85.7875C69.1249 85.4721 68.7851 84.9568 68.3426 84.4859ZM97.9076 44.1088C98.0685 44.1088 98.2294 44.1132 98.3859 44.1132C99.4811 43.2025 100.572 42.2874 101.685 41.3589C101.063 40.7992 100.585 40.1817 99.9594 39.884C99.5526 39.6886 98.4932 39.8663 98.4574 40.0262C98.1758 41.3634 98.0685 42.7405 97.9076 44.1088ZM100.536 56.6364C102.123 56.2588 103.522 55.0371 105.261 56.9651C105.976 56.0411 106.664 55.1526 107.42 54.1753C106.276 53.9354 105.569 53.7888 105.279 53.7266C103.526 54.8017 102.033 55.7168 100.536 56.6364ZM93.8041 78.7685C94.0097 80.1545 94.1617 81.1807 94.3137 82.2158C95.2524 81.8338 95.8827 81.5761 96.048 81.505C96.7543 79.4482 97.3399 77.7334 97.9255 76.0186C97.769 75.9831 97.6081 75.9431 97.4516 75.9076C96.2224 79.0617 95.7575 79.5237 93.8041 78.7685ZM65.5086 63.1579C66.1836 61.6608 66.0986 60.177 65.0392 59.2308C64.704 58.9331 63.1886 59.9415 62.0085 60.4347C63.3808 61.5053 64.3732 62.2783 65.5086 63.1579ZM115.824 93.7928C115.833 93.8505 115.841 93.9083 115.85 93.9616C116.664 94.006 117.495 94.1481 118.287 94.0371C118.537 94.0015 118.684 93.2774 118.881 92.8732C118.354 92.8021 117.831 92.7266 117.183 92.6377C116.896 92.2512 116.49 91.6959 116.065 91.1229C115.269 92.0558 114.594 92.851 113.915 93.6417C113.977 93.8194 114.036 94.0015 114.098 94.1792C114.675 94.0549 115.247 93.926 115.824 93.7928ZM117.652 68.3733C119.422 68.6576 121.147 68.9374 123.271 69.2795C121.063 66.2809 118.765 66.0143 117.652 68.3733ZM124.54 91.1362C127.508 88.3908 127.772 87.5112 126.194 86.4983C125.868 86.9248 125.635 87.4268 125.238 87.7022C123.946 88.6085 123.753 89.6835 124.54 91.1362ZM69.773 93.7439C66.9614 94.4769 67.1446 92.1313 65.8617 91.2517C66.4294 92.7532 66.9971 94.2503 67.6855 96.0673C67.8554 96.1295 68.4767 96.356 69.3573 96.6759C69.4914 95.7341 69.6166 94.8678 69.773 93.7439ZM63.202 74.0062C61.8029 73.2421 60.4082 72.478 58.6739 71.5274C58.5085 71.554 57.8469 71.6651 56.7875 71.8383C57.4982 72.7535 58.0972 73.5265 58.732 74.3483C60.3591 72.7357 61.7582 73.8108 63.202 74.0062ZM128.192 67.1427C128.362 67.1738 128.528 67.2093 128.693 67.2404C129.538 66.5385 130.383 65.8322 131.585 64.8326C130.508 64.4151 129.712 64.1041 128.912 63.7931C128.671 64.9082 128.429 66.0277 128.192 67.1427ZM130.454 76.9382C130.503 77.0182 130.552 77.0982 130.602 77.1737C131.505 76.9871 132.457 76.5162 133.297 76.6672C135.027 76.9782 135.34 76.876 135.559 74.5082C133.695 75.3967 132.077 76.1697 130.454 76.9382ZM128.277 92.731C127.365 93.6595 126.48 94.5524 125.6 95.4498C125.421 95.3609 125.242 95.2765 125.059 95.1877C125.206 95.9251 125.354 96.6626 125.51 97.4666C126.23 97.1557 126.686 96.9602 126.78 96.9202C127.356 95.3032 127.826 93.9882 128.277 92.731ZM93.1157 50.0883C92.9726 50.2837 92.8296 50.4792 92.6821 50.6747C94.3941 50.3415 94.2064 51.1944 94.0589 52.034C94.783 51.7631 95.2971 51.5676 95.8201 51.3721C95.8201 50.5192 95.8201 49.7195 95.8201 48.6445C94.7786 49.2042 93.9471 49.644 93.1157 50.0883ZM69.2187 69.9459C69.6345 69.3683 69.9831 68.8752 70.4346 68.2444C69.6166 67.8757 68.8075 67.507 67.9224 67.1072C67.4888 68.7642 67.7615 69.7593 69.2187 69.9459ZM94.3584 19.2801C94.6981 18.8803 95.2479 18.2317 96.0972 17.2277C94.5372 17.2277 93.4197 17.2277 92.1591 17.2277C93.0576 18.0673 93.6834 18.6493 94.3584 19.2801ZM51.9285 102.233C51.8257 102.087 51.7229 101.945 51.6201 101.798C50.6412 101.98 49.6622 102.162 48.6833 102.349C48.643 102.544 48.6073 102.74 48.567 102.935C49.2465 103.135 49.9617 103.557 50.592 103.464C51.0926 103.388 51.4905 102.669 51.9285 102.233ZM71.0693 39.6353C70.229 38.7512 69.3931 38.7468 67.985 39.7641C68.4991 40.3016 69.0042 40.8347 69.2456 41.0879C69.9563 40.5237 70.5195 40.0751 71.0693 39.6353ZM127.021 71.4474C126.833 71.2919 126.646 71.1409 126.458 70.9854C125.819 71.3141 125.175 71.6473 124.585 71.9494C124.965 72.518 125.242 72.9312 125.761 73.7041C126.216 72.8823 126.619 72.1626 127.021 71.4474ZM100.514 51.4032C100.719 51.461 100.925 51.5143 101.135 51.572C101.278 50.9679 101.667 50.2882 101.506 49.7817C101.256 48.991 100.549 48.6089 99.6375 48.9777C99.9906 49.9594 100.254 50.6835 100.514 51.4032ZM97.2505 28.0494C98.6183 28.5292 99.1905 30.0441 100.92 28.9735C99.7046 28.396 99.1458 26.9966 97.2505 28.0494ZM95.7843 21.8078C95.9989 21.6879 96.2134 21.5635 96.4325 21.4436C96.361 20.755 96.2894 20.0664 96.209 19.289C95.7664 19.3112 95.3552 19.329 94.4567 19.3734C95.0021 20.3729 95.3954 21.0926 95.7843 21.8078ZM98.9581 94.0238C101.251 93.9838 101.358 93.9038 101.452 92.0469C100.862 93.2152 98.8374 91.9181 98.9581 94.0238ZM64.1586 67.3693C63.9932 67.2271 63.8323 67.0805 63.6669 66.9383C63.1752 67.4848 62.5986 67.9868 62.2454 68.6131C62.165 68.7597 62.8355 69.3239 63.3048 69.8659C63.6848 68.7553 63.9217 68.0623 64.1586 67.3693ZM125.55 47.5205C125.81 47.1963 126.19 46.7342 126.807 45.9701C125.618 45.9701 124.768 45.9701 123.727 45.9701C124.442 46.5743 124.929 46.9919 125.55 47.5205ZM65.0258 107.506C64.7353 105.236 63.2154 106.209 62.4332 105.685C62.3438 105.876 62.2588 106.063 62.1739 106.254C63.0277 106.631 63.8815 107.004 65.0258 107.506ZM66.0942 49.1509C66.0316 48.9421 65.969 48.7333 65.9019 48.5201C64.7263 48.1025 64.0871 49.0265 63.3361 49.6707C63.4032 49.8528 63.4747 50.0305 63.5418 50.2127C64.3911 49.8573 65.2404 49.5019 66.0942 49.1509Z" fill="#01443A"/>
    </g>
    <defs>
        <clipPath id="clip0_56:375">
            <rect width="190" height="146" fill="white"/>
        </clipPath>
    </defs>
</svg>
