<svg width="25" height="19" viewBox="0 0 25 19" fill="none" xmlns="http://www.w3.org/2000/svg">
    <path d="M7.81245 7.91668C7.81245 6.16778 9.21156 4.75001 10.9374 4.75001C12.6633 4.75001 14.0624 6.16778 14.0624 7.91668C14.0624 9.66559 12.6633 11.0834 10.9374 11.0834C9.21156 11.0834 7.81245 9.66559 7.81245 7.91668ZM10.9374 6.33335C10.0745 6.33335 9.37494 7.04223 9.37494 7.91668C9.37494 8.79114 10.0745 9.50002 10.9374 9.50002C11.8004 9.50002 12.4999 8.79114 12.4999 7.91668C12.4999 7.04223 11.8004 6.33335 10.9374 6.33335ZM2.34374 0C1.04933 0 0 1.06333 0 2.37501V13.4584C0 14.77 1.04933 15.8334 2.34374 15.8334H19.5311C20.8255 15.8334 21.8749 14.77 21.8749 13.4584V2.37501C21.8749 1.06333 20.8255 0 19.5311 0H2.34374ZM1.56249 2.37501C1.56249 1.93778 1.91227 1.58334 2.34374 1.58334H4.68747V3.16667C4.68747 4.04113 3.98792 4.75001 3.12498 4.75001L1.56249 4.75001V2.37501ZM1.56249 6.33335L3.12498 6.33335C4.85086 6.33335 6.24996 4.91558 6.24996 3.16667V1.58334H15.6249V3.16667C15.6249 4.91558 17.024 6.33335 18.7499 6.33335L20.3124 6.33335V9.50002H18.7499C17.024 9.50002 15.6249 10.9178 15.6249 12.6667V14.25H6.24996V12.6667C6.24996 10.9178 4.85086 9.50002 3.12498 9.50002H1.56249V6.33335ZM17.1874 1.58334H19.5311C19.9626 1.58334 20.3124 1.93778 20.3124 2.37501V4.75001L18.7499 4.75001C17.8869 4.75001 17.1874 4.04113 17.1874 3.16667V1.58334ZM20.3124 11.0834V13.4584C20.3124 13.8956 19.9626 14.25 19.5311 14.25H17.1874V12.6667C17.1874 11.7922 17.8869 11.0834 18.7499 11.0834H20.3124ZM4.68747 14.25H2.34374C1.91227 14.25 1.56249 13.8956 1.56249 13.4584V11.0834H3.12498C3.98792 11.0834 4.68747 11.7922 4.68747 12.6667V14.25ZM23.4375 13.4583C23.4375 15.6445 21.6886 17.4167 19.5313 17.4167H3.2585C3.58024 18.3391 4.44839 19 5.46887 19H19.5313C22.5516 19 25 16.5189 25 13.4583V5.54164C25 4.50755 24.3478 3.62781 23.4375 3.30178V13.4583Z" fill="#616161"/>
</svg>
