<svg width="24" height="24" viewBox="0 0 24 24" fill="none" xmlns="http://www.w3.org/2000/svg">
    <path d="M12.0039 0.5C18.3552 0.5 23.5039 5.64873 23.5039 12C23.5039 18.3513 18.3552 23.5 12.0039 23.5C10.0828 23.5 8.22902 23.0278 6.57456 22.1401L2.06952 23.4928C1.40833 23.6913 0.711379 23.3163 0.512834 22.6551C0.442389 22.4205 0.44242 22.1704 0.512915 21.9358L1.866 17.4333C0.976923 15.7779 0.503908 13.9226 0.503908 12C0.503908 5.64873 5.65263 0.5 12.0039 0.5ZM12.0039 2C6.48106 2 2.00391 6.47715 2.00391 12C2.00391 13.7703 2.46387 15.4718 3.32574 16.9725L3.48659 17.2526L2.08318 21.9225L6.75515 20.5197L7.03503 20.6803C8.53484 21.5408 10.235 22 12.0039 22C17.5268 22 22.0039 17.5228 22.0039 12C22.0039 6.47715 17.5268 2 12.0039 2ZM8.25391 13.5H12.7522C13.1664 13.5 13.5022 13.8358 13.5022 14.25C13.5022 14.6297 13.22 14.9435 12.8539 14.9932L12.7522 15H8.25391C7.83969 15 7.50391 14.6642 7.50391 14.25C7.50391 13.8703 7.78606 13.5565 8.15214 13.5068L8.25391 13.5H12.7522H8.25391ZM8.25391 9H15.7584C16.1726 9 16.5084 9.33579 16.5084 9.75C16.5084 10.1297 16.2262 10.4435 15.8602 10.4932L15.7584 10.5H8.25391C7.83969 10.5 7.50391 10.1642 7.50391 9.75C7.50391 9.3703 7.78606 9.05651 8.15214 9.00685L8.25391 9H15.7584H8.25391Z" fill="#616161"/>
</svg>
