<svg width="24" height="20" viewBox="0 0 24 20" fill="none" xmlns="http://www.w3.org/2000/svg">
    <path d="M20.75 20H3.25C1.51697 20 0.100754 18.6435 0.00514483 16.9344L0 16.75V2.25C0 1.05914 0.925161 0.0843551 2.09595 0.00519085L2.25 0H17.75C18.9409 0 19.9156 0.925161 19.9948 2.09595L20 2.25V3H21.75C22.9409 3 23.9156 3.92516 23.9948 5.09595L24 5.25V16.75C24 18.483 22.6435 19.8992 20.9344 19.9949L20.75 20H3.25H20.75ZM3.25 18.5H20.75C21.6682 18.5 22.4212 17.7929 22.4942 16.8935L22.5 16.75V5.25C22.5 4.8703 22.2178 4.55651 21.8518 4.50685L21.75 4.5H20V15.25C20 15.6297 19.7178 15.9435 19.3518 15.9932L19.25 16C18.8703 16 18.5565 15.7178 18.5068 15.3518L18.5 15.25V2.25C18.5 1.8703 18.2178 1.55651 17.8518 1.50685L17.75 1.5H2.25C1.8703 1.5 1.55651 1.78215 1.50685 2.14823L1.5 2.25V16.75C1.5 17.6682 2.20711 18.4212 3.10647 18.4942L3.25 18.5H20.75H3.25ZM8.24653 9.00347C8.93688 9.00347 9.49653 9.56312 9.49653 10.2535V13.75C9.49653 14.4404 8.93688 15 8.24653 15H4.75C4.05964 15 3.5 14.4404 3.5 13.75V10.2535C3.5 9.56312 4.05964 9.00347 4.75 9.00347H8.24653ZM12.25 13.5H15.7462C16.1604 13.5 16.4962 13.8358 16.4962 14.25C16.4962 14.6297 16.214 14.9435 15.848 14.9932L15.7462 15H12.25C11.8358 15 11.5 14.6642 11.5 14.25C11.5 13.8703 11.7822 13.5565 12.1482 13.5068L12.25 13.5H15.7462H12.25ZM7.99653 10.5035H5V13.5H7.99653V10.5035ZM12.25 9.00347H15.7462C16.1604 9.00347 16.4962 9.33926 16.4962 9.75347C16.4962 10.1332 16.214 10.447 15.848 10.4966L15.7462 10.5035H12.25C11.8358 10.5035 11.5 10.1677 11.5 9.75347C11.5 9.37378 11.7822 9.05998 12.1482 9.01032L12.25 9.00347H15.7462H12.25ZM4.2464 4.49666H15.7462C16.1604 4.49666 16.4962 4.83244 16.4962 5.24666C16.4962 5.62635 16.214 5.94015 15.848 5.98981L15.7462 5.99666H4.2464C3.83218 5.99666 3.4964 5.66087 3.4964 5.24666C3.4964 4.86696 3.77855 4.55317 4.14463 4.5035L4.2464 4.49666H15.7462H4.2464Z" fill="#616161"/>
</svg>
