<svg width="16" height="22" viewBox="0 0 16 22" fill="none" xmlns="http://www.w3.org/2000/svg">
    <path d="M3.05658 1.41801L4.22358 1.06625C5.54608 0.667612 6.95908 1.31185 7.52544 2.57168L8.4271 4.5774C8.90984 5.65123 8.65545 6.91323 7.79439 7.71618L6.30009 9.10964C6.25642 9.15036 6.22876 9.20538 6.22213 9.26473C6.17778 9.66187 6.44701 10.4353 7.06727 11.5096C7.51832 12.2908 7.92657 12.8387 8.27406 13.1469C8.51616 13.3615 8.64944 13.408 8.70617 13.3911L10.7165 12.7765C11.8421 12.4323 13.0619 12.8427 13.7506 13.7972L15.0313 15.5722C15.8374 16.6894 15.6925 18.2307 14.6922 19.178L13.8058 20.0174C12.8494 20.9232 11.4879 21.2607 10.2191 20.9066C7.46503 20.1378 4.99572 17.8137 2.78384 13.9826C0.568894 10.1462 -0.208298 6.84179 0.508154 4.07C0.836022 2.80152 1.80215 1.79613 3.05658 1.41801ZM3.48948 2.85419C2.73682 3.08106 2.15715 3.68429 1.96043 4.44538C1.35778 6.7769 2.04663 9.70575 4.08288 13.2326C6.11641 16.7548 8.30536 18.8151 10.6224 19.4618C11.3836 19.6743 12.2006 19.4718 12.7744 18.9283L13.6608 18.0889C14.1154 17.6583 14.1813 16.9577 13.8149 16.4499L12.5342 14.6749C12.2211 14.241 11.6667 14.0545 11.155 14.2109L9.13971 14.8271C7.97 15.1757 6.90832 14.2343 5.76823 12.2596C4.99993 10.9289 4.64183 9.90018 4.7314 9.09823C4.7778 8.6828 4.97137 8.29769 5.27709 8.0126L6.77139 6.61915C7.16278 6.25417 7.27842 5.68053 7.05899 5.19243L6.15732 3.18671C5.89989 2.61406 5.25762 2.32122 4.65648 2.50242L3.48948 2.85419Z" fill="#212121"/>
</svg>
