<svg width="375" height="71" viewBox="0 0 375 71" fill="none" xmlns="http://www.w3.org/2000/svg">
    <rect width="375" height="71" rx="3.75" fill="#01443A"/>
    <rect width="375" height="71" rx="3.75" fill="black" fill-opacity="0.3"/>
    <path d="M352.723 39.2211C352.43 39.5142 352.43 39.9891 352.723 40.2818C353.017 40.5745 353.491 40.5742 353.784 40.2811L358.781 35.2776C359.073 34.9847 359.073 34.5101 358.78 34.2174L353.784 29.2197C353.491 28.9268 353.016 28.9268 352.723 29.2196C352.43 29.5125 352.43 29.9874 352.723 30.2803L356.443 34H348.601C347.006 34 345.79 34.242 344.712 34.7645L344.466 34.89C343.357 35.4829 342.483 36.3573 341.89 37.4658C341.281 38.6053 341 39.8837 341 41.6012C341 42.0154 341.336 42.3512 341.75 42.3512C342.164 42.3512 342.5 42.0154 342.5 41.6012C342.5 40.1174 342.728 39.0802 343.213 38.1732C343.666 37.3261 344.326 36.6658 345.173 36.2128C346.01 35.765 346.959 35.5365 348.267 35.5041L348.601 35.5H356.438L352.723 39.2211Z" fill="white"/>
    <path d="M24.56 41.105C23.86 41.105 23.23 40.985 22.67 40.745C22.11 40.495 21.67 40.145 21.35 39.695C21.03 39.245 20.87 38.72 20.87 38.12H22.7C22.74 38.57 22.915 38.94 23.225 39.23C23.545 39.52 23.99 39.665 24.56 39.665C25.15 39.665 25.61 39.525 25.94 39.245C26.27 38.955 26.435 38.585 26.435 38.135C26.435 37.785 26.33 37.5 26.12 37.28C25.92 37.06 25.665 36.89 25.355 36.77C25.055 36.65 24.635 36.52 24.095 36.38C23.415 36.2 22.86 36.02 22.43 35.84C22.01 35.65 21.65 35.36 21.35 34.97C21.05 34.58 20.9 34.06 20.9 33.41C20.9 32.81 21.05 32.285 21.35 31.835C21.65 31.385 22.07 31.04 22.61 30.8C23.15 30.56 23.775 30.44 24.485 30.44C25.495 30.44 26.32 30.695 26.96 31.205C27.61 31.705 27.97 32.395 28.04 33.275H26.15C26.12 32.895 25.94 32.57 25.61 32.3C25.28 32.03 24.845 31.895 24.305 31.895C23.815 31.895 23.415 32.02 23.105 32.27C22.795 32.52 22.64 32.88 22.64 33.35C22.64 33.67 22.735 33.935 22.925 34.145C23.125 34.345 23.375 34.505 23.675 34.625C23.975 34.745 24.385 34.875 24.905 35.015C25.595 35.205 26.155 35.395 26.585 35.585C27.025 35.775 27.395 36.07 27.695 36.47C28.005 36.86 28.16 37.385 28.16 38.045C28.16 38.575 28.015 39.075 27.725 39.545C27.445 40.015 27.03 40.395 26.48 40.685C25.94 40.965 25.3 41.105 24.56 41.105ZM31.0477 31.64C30.7377 31.64 30.4777 31.535 30.2677 31.325C30.0577 31.115 29.9527 30.855 29.9527 30.545C29.9527 30.235 30.0577 29.975 30.2677 29.765C30.4777 29.555 30.7377 29.45 31.0477 29.45C31.3477 29.45 31.6027 29.555 31.8127 29.765C32.0227 29.975 32.1277 30.235 32.1277 30.545C32.1277 30.855 32.0227 31.115 31.8127 31.325C31.6027 31.535 31.3477 31.64 31.0477 31.64ZM31.8877 32.735V41H30.1777V32.735H31.8877ZM37.4628 32.6C38.1028 32.6 38.6678 32.73 39.1578 32.99C39.6578 33.24 40.0478 33.555 40.3278 33.935V32.735H42.0528V41.135C42.0528 41.895 41.8928 42.57 41.5728 43.16C41.2528 43.76 40.7878 44.23 40.1778 44.57C39.5778 44.91 38.8578 45.08 38.0178 45.08C36.8978 45.08 35.9678 44.815 35.2278 44.285C34.4878 43.765 34.0678 43.055 33.9678 42.155H35.6628C35.7928 42.585 36.0678 42.93 36.4878 43.19C36.9178 43.46 37.4278 43.595 38.0178 43.595C38.7078 43.595 39.2628 43.385 39.6828 42.965C40.1128 42.545 40.3278 41.935 40.3278 41.135V39.755C40.0378 40.145 39.6428 40.475 39.1428 40.745C38.6528 41.005 38.0928 41.135 37.4628 41.135C36.7428 41.135 36.0828 40.955 35.4828 40.595C34.8928 40.225 34.4228 39.715 34.0728 39.065C33.7328 38.405 33.5628 37.66 33.5628 36.83C33.5628 36 33.7328 35.265 34.0728 34.625C34.4228 33.985 34.8928 33.49 35.4828 33.14C36.0828 32.78 36.7428 32.6 37.4628 32.6ZM40.3278 36.86C40.3278 36.29 40.2078 35.795 39.9678 35.375C39.7378 34.955 39.4328 34.635 39.0528 34.415C38.6728 34.195 38.2628 34.085 37.8228 34.085C37.3828 34.085 36.9728 34.195 36.5928 34.415C36.2128 34.625 35.9028 34.94 35.6628 35.36C35.4328 35.77 35.3178 36.26 35.3178 36.83C35.3178 37.4 35.4328 37.9 35.6628 38.33C35.9028 38.76 36.2128 39.09 36.5928 39.32C36.9828 39.54 37.3928 39.65 37.8228 39.65C38.2628 39.65 38.6728 39.54 39.0528 39.32C39.4328 39.1 39.7378 38.78 39.9678 38.36C40.2078 37.93 40.3278 37.43 40.3278 36.86ZM48.4688 32.6C49.1188 32.6 49.6988 32.735 50.2088 33.005C50.7288 33.275 51.1338 33.675 51.4238 34.205C51.7138 34.735 51.8588 35.375 51.8588 36.125V41H50.1638V36.38C50.1638 35.64 49.9788 35.075 49.6088 34.685C49.2388 34.285 48.7338 34.085 48.0938 34.085C47.4538 34.085 46.9438 34.285 46.5638 34.685C46.1938 35.075 46.0088 35.64 46.0088 36.38V41H44.2988V32.735H46.0088V33.68C46.2888 33.34 46.6438 33.075 47.0738 32.885C47.5138 32.695 47.9788 32.6 48.4688 32.6ZM62.6915 41.105C61.7215 41.105 60.8265 40.88 60.0065 40.43C59.1965 39.97 58.5515 39.335 58.0715 38.525C57.6015 37.705 57.3665 36.785 57.3665 35.765C57.3665 34.745 57.6015 33.83 58.0715 33.02C58.5515 32.21 59.1965 31.58 60.0065 31.13C60.8265 30.67 61.7215 30.44 62.6915 30.44C63.6715 30.44 64.5665 30.67 65.3765 31.13C66.1965 31.58 66.8415 32.21 67.3115 33.02C67.7815 33.83 68.0165 34.745 68.0165 35.765C68.0165 36.785 67.7815 37.705 67.3115 38.525C66.8415 39.335 66.1965 39.97 65.3765 40.43C64.5665 40.88 63.6715 41.105 62.6915 41.105ZM62.6915 39.62C63.3815 39.62 63.9965 39.465 64.5365 39.155C65.0765 38.835 65.4965 38.385 65.7965 37.805C66.1065 37.215 66.2615 36.535 66.2615 35.765C66.2615 34.995 66.1065 34.32 65.7965 33.74C65.4965 33.16 65.0765 32.715 64.5365 32.405C63.9965 32.095 63.3815 31.94 62.6915 31.94C62.0015 31.94 61.3865 32.095 60.8465 32.405C60.3065 32.715 59.8815 33.16 59.5715 33.74C59.2715 34.32 59.1215 34.995 59.1215 35.765C59.1215 36.535 59.2715 37.215 59.5715 37.805C59.8815 38.385 60.3065 38.835 60.8465 39.155C61.3865 39.465 62.0015 39.62 62.6915 39.62ZM77.1842 32.735V41H75.4742V40.025C75.2042 40.365 74.8492 40.635 74.4092 40.835C73.9792 41.025 73.5192 41.12 73.0292 41.12C72.3792 41.12 71.7942 40.985 71.2742 40.715C70.7642 40.445 70.3592 40.045 70.0592 39.515C69.7692 38.985 69.6242 38.345 69.6242 37.595V32.735H71.3192V37.34C71.3192 38.08 71.5042 38.65 71.8742 39.05C72.2442 39.44 72.7492 39.635 73.3892 39.635C74.0292 39.635 74.5342 39.44 74.9042 39.05C75.2842 38.65 75.4742 38.08 75.4742 37.34V32.735H77.1842ZM81.4354 34.13V38.705C81.4354 39.015 81.5054 39.24 81.6454 39.38C81.7954 39.51 82.0454 39.575 82.3954 39.575H83.4454V41H82.0954C81.3254 41 80.7354 40.82 80.3254 40.46C79.9154 40.1 79.7104 39.515 79.7104 38.705V34.13H78.7354V32.735H79.7104V30.68H81.4354V32.735H83.4454V34.13H81.4354Z" fill="white"/>
</svg>
