<svg width="22" height="22" viewBox="0 0 22 22" fill="none" xmlns="http://www.w3.org/2000/svg">
<path d="M9.15661 6.35927C9.15661 2.84714 12.0317 0 15.5783 0C16.6347 0 17.6338 0.253246 18.5148 0.702503C18.7526 0.823775 18.9176 1.05023 18.9589 1.31194C19.0002 1.57366 18.9127 1.83916 18.7236 2.02646L15.6347 5.0853L16.8193 6.25835L19.9224 3.18538C20.1103 2.99933 20.3762 2.91258 20.6389 2.95161C20.9017 2.99064 21.1302 3.1508 21.2547 3.38325C21.7307 4.27206 22 5.28575 22 6.35927C22 9.8714 19.1249 12.7185 15.5783 12.7185C15.0639 12.7185 14.5628 12.6585 14.0821 12.5448L5.85687 20.971C4.60402 22.2544 2.55846 22.3494 1.18983 21.1877C-0.29969 19.9234 -0.406032 17.6777 0.957474 16.2809L9.30601 7.72848C9.2081 7.28688 9.15661 6.82863 9.15661 6.35927ZM15.5783 1.65894C12.9569 1.65894 10.8318 3.76335 10.8318 6.35927C10.8318 6.837 10.9035 7.29665 11.0363 7.72901C11.1248 8.0172 11.0486 8.33025 10.8371 8.54682L2.16194 17.4339C1.46885 18.144 1.5229 19.2855 2.28005 19.9281C2.97576 20.5187 4.01555 20.4704 4.6524 19.818L13.2256 11.0354C13.449 10.8066 13.7849 10.7245 14.0902 10.8242C14.5572 10.9767 15.0571 11.0596 15.5783 11.0596C18.1997 11.0596 20.3248 8.95519 20.3248 6.35927C20.3248 5.98088 20.2798 5.61344 20.1949 5.26167L17.4116 8.01792C17.0845 8.34185 16.5541 8.34185 16.227 8.01792L13.8579 5.67182C13.5308 5.34789 13.5308 4.8227 13.8579 4.49877L16.6127 1.7707C16.2801 1.69755 15.934 1.65894 15.5783 1.65894Z" fill="#01443A"/>
</svg>
