<svg width="87" height="86" viewBox="0 0 87 86" fill="none" xmlns="http://www.w3.org/2000/svg">
<path d="M0 3.68571C0 1.65015 1.66945 0 3.72882 0H6.50437C11.2299 0 14.0593 3.14019 15.6772 6.05928C16.7556 8.00509 17.5358 10.2619 18.146 12.3051C18.3113 12.2923 18.4787 12.2857 18.6481 12.2857H80.7815C84.9091 12.2857 87.8899 16.1897 86.758 20.1132L77.671 51.6095C75.9963 57.4144 70.6298 61.4176 64.5229 61.4176H34.9503C28.7929 61.4176 23.3951 57.3492 21.7655 51.48L17.9845 37.8624L11.7271 16.9827L11.7169 16.9461C10.9428 14.1557 10.2163 11.5488 9.13674 9.60102C8.08837 7.70954 7.25263 7.37143 6.50437 7.37143H3.72882C1.66945 7.37143 0 5.72128 0 3.68571ZM25.2209 36.0722L28.9572 49.5291C29.698 52.1969 32.1515 54.0462 34.9503 54.0462H64.5229C67.2988 54.0462 69.7381 52.2266 70.4993 49.5879L79.1346 19.6571H20.3121L25.1524 35.8095C25.1787 35.8969 25.2014 35.9845 25.2209 36.0722ZM42.2599 76.1714C42.2599 81.5996 37.8081 86 32.3164 86C26.8248 86 22.3729 81.5996 22.3729 76.1714C22.3729 70.7433 26.8248 66.3429 32.3164 66.3429C37.8081 66.3429 42.2599 70.7433 42.2599 76.1714ZM34.8023 76.1714C34.8023 74.8144 33.6893 73.7143 32.3164 73.7143C30.9435 73.7143 29.8306 74.8144 29.8306 76.1714C29.8306 77.5285 30.9435 78.6286 32.3164 78.6286C33.6893 78.6286 34.8023 77.5285 34.8023 76.1714ZM77.0623 76.1714C77.0623 81.5996 72.6104 86 67.1187 86C61.6271 86 57.1752 81.5996 57.1752 76.1714C57.1752 70.7433 61.6271 66.3429 67.1187 66.3429C72.6104 66.3429 77.0623 70.7433 77.0623 76.1714ZM69.6046 76.1714C69.6046 74.8144 68.4916 73.7143 67.1187 73.7143C65.7458 73.7143 64.6329 74.8144 64.6329 76.1714C64.6329 77.5285 65.7458 78.6286 67.1187 78.6286C68.4916 78.6286 69.6046 77.5285 69.6046 76.1714Z" fill="#01443A"/>
</svg>
