<svg width="21" height="23" viewBox="0 0 21 23" fill="none" xmlns="http://www.w3.org/2000/svg">
<path d="M9.91667 2.91667C15.3935 2.91667 19.8333 7.35651 19.8333 12.8333C19.8333 18.3102 15.3935 22.75 9.91667 22.75C4.43984 22.75 0 18.3102 0 12.8333C0 7.35651 4.43984 2.91667 9.91667 2.91667ZM9.91667 4.66667C5.40634 4.66667 1.75 8.32301 1.75 12.8333C1.75 17.3437 5.40634 21 9.91667 21C14.427 21 18.0833 17.3437 18.0833 12.8333C18.0833 8.32301 14.427 4.66667 9.91667 4.66667ZM9.91667 6.41667C10.3596 6.41667 10.7257 6.74585 10.7837 7.17294L10.7917 7.29167V12.5417C10.7917 13.0249 10.3999 13.4167 9.91667 13.4167C9.47369 13.4167 9.10759 13.0875 9.04965 12.6604L9.04167 12.5417V7.29167C9.04167 6.80842 9.43342 6.41667 9.91667 6.41667ZM18.2551 3.04933L18.3514 3.11914L19.7029 4.24402C20.0743 4.55317 20.1248 5.10489 19.8157 5.47632C19.5323 5.81678 19.0451 5.88758 18.6797 5.65889L18.5834 5.58907L17.2319 4.4642C16.8605 4.15504 16.81 3.60332 17.1191 3.2319C17.4025 2.89143 17.8897 2.82064 18.2551 3.04933ZM12.5417 0C13.0249 0 13.4167 0.391751 13.4167 0.875C13.4167 1.31798 13.0875 1.68407 12.6604 1.74201L12.5417 1.75H7.29167C6.80842 1.75 6.41667 1.35825 6.41667 0.875C6.41667 0.432022 6.74585 0.0659273 7.17294 0.00798778L7.29167 0H12.5417Z" fill="#01443A"/>
</svg>
