<svg xmlns="http://www.w3.org/2000/svg" viewBox="0 0 1371.35 291.95"><defs><style>.cls-1,.cls-2{fill:#fff;}.cls-2{fill-rule:evenodd;}</style></defs><g id="Layer_2" data-name="Layer 2"><g id="Layer_1-2" data-name="Layer 1"><path class="cls-1" d="M336.52,147.62q1.85,0,18.11-.79a4.81,4.81,0,0,1,.4,2.45c0,1.28-.18,1.92-.53,1.92a14.6,14.6,0,0,0-2.78.33,10.67,10.67,0,0,0-3.57,1.45,3.3,3.3,0,0,0-1.85,2.84q0,2.51,10.05,27.11c1,2.81,1.94,5,2.64,6.48,1.06,2.72,2.38,5.88,4,9.44s3,6.51,4.1,8.8a16.85,16.85,0,0,0,1.72,3.17l19.3-45.61q2.64-6.21,2.64-9.12,0-2.39-3.1-3.64a16.59,16.59,0,0,0-6.28-1.25c-.36,0-.51-.64-.47-1.92a7.86,7.86,0,0,1,.33-2.45c.8,0,2.91.14,6.35.39s6.21.4,8.33.4c2.29,0,4.94-.1,7.93-.33l6.48-.46a5.51,5.51,0,0,1,.27,2q0,2.25-.27,2.25a15,15,0,0,0-4.56,1,10.12,10.12,0,0,0-4.43,2.84,102.47,102.47,0,0,0-5.68,11.65l-27.5,64.38q-2,4.76-5.16,4.76a2.4,2.4,0,0,1-2.12-1.32l-27.23-67.69a125.9,125.9,0,0,0-5-11.78q-.93-1.71-4.09-2.7a18.11,18.11,0,0,0-5-1c-.35,0-.53-.67-.53-2a4.52,4.52,0,0,1,.4-2.38c.62,0,3,.14,7.27.39S334.14,147.62,336.52,147.62Z"/><path class="cls-1" d="M432.9,147.5q5.82,0,20.49-.47t22.22-.46q.52,4,2.11,11t1.72,7.74a4.1,4.1,0,0,1-2.78.66c-1,0-1.59-.3-1.85-.92q-4.37-11.78-16.92-11.77H451c-6.52,0-9.87.58-10,1.72a53.57,53.57,0,0,0-.8,10.71v20.75c0,.54,1.94.8,5.82.8h7.4c5.11,0,8.16-.22,9.13-.66s1.72-2,2.24-4.63c.27-1.32.53-2.43.79-3.3.09-.62.8-.93,2.12-.93a3.57,3.57,0,0,1,2.51.66v25a3.89,3.89,0,0,1-2.51.53c-1.14,0-1.85-.36-2.12-1.06a39.15,39.15,0,0,0-1.65-5.29,7.81,7.81,0,0,0-.92-1.85c-.13-.09-.51-.35-1.12-.8q-1.73-1-12.17-1c-6.34,0-9.52.35-9.52,1v20.5q0,7.28,1.19,10.71c.44,1.14,3.44,1.72,9,1.72h4.89q10.32,0,15.74-2.78a15.21,15.21,0,0,0,4.76-4.63,27.7,27.7,0,0,0,4.09-8.06c.09-.53.71-.79,1.86-.79,1.93,0,3.17.26,3.7.79-.27.79-.9,2.6-1.92,5.42s-1.78,5-2.31,6.41-1.11,3.24-1.72,5.36a35.24,35.24,0,0,0-1.19,5.15q-5.29,0-21.88-.39T433,234.22l-17.58.53c-.27-.26-.4-1-.4-2.12,0-1.49.13-2.24.4-2.24a22,22,0,0,0,5-.86c2.2-.57,3.48-1.25,3.84-2.05q.92-2.78.92-12v-50q0-7.95-.92-10.84-.4-1.47-3.7-2.38a20.75,20.75,0,0,0-5.3-.93c-.35,0-.52-.67-.52-2a3.59,3.59,0,0,1,.52-2.37Q424,147.5,432.9,147.5Z"/><path class="cls-1" d="M564.19,165.21c0-4.67-.44-8.2-1.33-10.57-.44-1.06-1.91-1.91-4.42-2.52a26.93,26.93,0,0,0-5.89-.92c-.35,0-.55-.64-.59-1.92a4.4,4.4,0,0,1,.33-2.45q14.15.93,16.66.92,3.43,0,8.85-.46t6.75-.46a5.68,5.68,0,0,1,.26,2.11c0,1.51-.17,2.26-.53,2.26a25.45,25.45,0,0,0-5.68,1c-2.56.66-4.23,1.56-5,2.7-1,2.39-1.45,6-1.45,11V216q0,4.76.53,18.51c-.35.35-1.32.53-2.91.53-1.41,0-2.82-1-4.23-3l-52.62-69.81v53.55c0,5.28.35,8.9,1.05,10.84q.67,1.58,4.9,2.71a27.24,27.24,0,0,0,5.95,1.12c.26,0,.41.62.46,1.85a7.13,7.13,0,0,1-.2,2.51c-10.58-.53-16.08-.79-16.53-.79q-3.56,0-8.79.33t-6.94.46a3.33,3.33,0,0,1-.53-2.25c0-1.41.18-2.11.53-2.11a25.08,25.08,0,0,0,6-1q3.76-1,4.82-3,1.32-2.78,1.32-11.1V163.49c0-4.76-.48-8-1.45-9.65q-.53-.93-4.56-1.72a34.19,34.19,0,0,0-5.89-.79c-.35,0-.54-.67-.59-2a3.76,3.76,0,0,1,.46-2.51q13.89.66,15.74.67,4.36,0,11.9-.67a136.14,136.14,0,0,0,9.19,14.09q6.68,9.32,18.31,24.59t15.86,21.08a37,37,0,0,0,.27-5.41Z"/><path class="cls-1" d="M609.67,147.5q5.82,0,20.49-.47t22.21-.46q.54,4,2.12,11t1.72,7.74a4.1,4.1,0,0,1-2.78.66c-1,0-1.59-.3-1.85-.92q-4.37-11.78-16.92-11.77h-6.88c-6.52,0-9.87.58-10,1.72a54.49,54.49,0,0,0-.79,10.71v20.75c0,.54,1.94.8,5.82.8h7.4q7.67,0,9.12-.66c1-.44,1.72-2,2.25-4.63.27-1.32.53-2.43.8-3.3.08-.62.79-.93,2.11-.93a3.58,3.58,0,0,1,2.51.66v25a3.89,3.89,0,0,1-2.51.53c-1.15,0-1.85-.36-2.11-1.06a40.36,40.36,0,0,0-1.66-5.29,7.81,7.81,0,0,0-.92-1.85c-.13-.09-.51-.35-1.13-.8q-1.71-1-12.16-1-9.53,0-9.52,1v20.5q0,7.28,1.19,10.71c.44,1.14,3.44,1.72,9,1.72H632q10.32,0,15.74-2.78a15.09,15.09,0,0,0,4.75-4.63,27.47,27.47,0,0,0,4.1-8.06c.09-.53.71-.79,1.85-.79,1.95,0,3.18.26,3.71.79q-.4,1.18-1.92,5.42c-1,2.82-1.79,5-2.31,6.41s-1.11,3.24-1.72,5.36a36.61,36.61,0,0,0-1.19,5.15q-5.29,0-21.89-.39t-23.33-.14l-17.58.53c-.27-.26-.4-1-.4-2.12,0-1.49.13-2.24.4-2.24a22,22,0,0,0,5-.86c2.2-.57,3.48-1.25,3.83-2.05q.93-2.78.93-12v-50q0-7.95-.93-10.84-.39-1.47-3.7-2.38a20.62,20.62,0,0,0-5.29-.93c-.35,0-.53-.67-.53-2a3.58,3.58,0,0,1,.53-2.37Q600.81,147.5,609.67,147.5Z"/><path class="cls-1" d="M694.61,147.29c5.95.23,10.83.33,14.62.33s8.68-.1,14.67-.33,10.8-.37,14.41-.46a43.9,43.9,0,0,0,9.12-1.32L750,165.74q-.93.93-3.57.93c-.71,0-1.15-.23-1.33-.67q-1.84-7.27-4.89-9.85t-9.52-2.57q-12.28,0-12.82,2.24-1.19,3.83-1.19,12.43V216a45.23,45.23,0,0,0,1.19,11.5q.13.93,3.57,1.92a21,21,0,0,0,4.63,1c.35,0,.52.79.52,2.38a6.83,6.83,0,0,1-.26,2.12l-5.09-.4q-3.37-.27-6.21-.4c-1.9-.09-3.73-.13-5.49-.13q-3.57,0-9.85.4t-7.73.53a3,3,0,0,1-.53-2.12c0-1.59.17-2.38.53-2.38a21.08,21.08,0,0,0,5-.93c2.25-.61,3.51-1.27,3.77-2q1.07-3.57,1.06-11V168.65q0-11-1.19-12.83-1.05-2.23-12.56-2.24-6.48,0-9.52,2.57t-5,9.72c-.08.53-.52.8-1.32.8-1.67,0-2.82-.36-3.43-1.06l2.51-20.1a44,44,0,0,0,9.12,1.32C683.88,146.92,688.67,147.08,694.61,147.29Z"/><path class="cls-1" d="M767,165.34c0-5.28-.35-9-1.06-11.1-.35-.71-1.58-1.39-3.7-2.05a17.72,17.72,0,0,0-4.76-1c-.35,0-.52-.67-.52-2a5.32,5.32,0,0,1,.26-2.38c.44,0,2.89.14,7.34.39s7.86.4,10.24.4q1.07,0,16.93-.79a6.88,6.88,0,0,1,.39,2.11c0,1.51-.17,2.26-.53,2.26a21.32,21.32,0,0,0-4.76,1.06c-2.37.7-3.65,1.36-3.83,2a48.8,48.8,0,0,0-1.06,11.63v49.72a49.15,49.15,0,0,0,1.19,11.89c.18.62,1.39,1.26,3.64,1.92a20.35,20.35,0,0,0,4.56,1c.35,0,.53.84.53,2.51a5.73,5.73,0,0,1-.27,1.85q-15.86-.8-16.79-.79c-1.76,0-3.61,0-5.55.13s-4.08.2-6.41.33l-5.62.33a2.54,2.54,0,0,1-.53-1.85c0-1.67.17-2.51.53-2.51a20.9,20.9,0,0,0,4.95-.93c2.25-.61,3.51-1.27,3.77-2a46,46,0,0,0,1.06-11.1Z"/><path class="cls-1" d="M847.65,147.09l27.77,69.29q2,5.28,4,9.65.79,2,4.24,3.17a17.66,17.66,0,0,0,5,1.19c.35,0,.53.79.53,2.38a4.47,4.47,0,0,1-.27,2Q873,234,872.25,234t-17.2.79a3.74,3.74,0,0,1-.53-2.44c0-1.28.18-1.92.53-1.92a17.4,17.4,0,0,0,4.37-.79c1.85-.53,3-1.15,3.3-1.85a3.72,3.72,0,0,0,.4-1.72c0-1.76-.84-4.81-2.51-9.12L856,204.6a1.48,1.48,0,0,0-.93-.52c-2.81-.18-6.6-.26-11.37-.26s-9.78.13-15.07.39c-.52,0-.79.18-.79.53l-5,12.3c-1.67,4.58-2.51,7.45-2.51,8.59a3,3,0,0,0,1.46,2.65,13.46,13.46,0,0,0,4.16,1.45,23.1,23.1,0,0,0,4,.66c.26.09.39.7.39,1.85a8.55,8.55,0,0,1-.26,2.51q-.66,0-6.21-.39t-9-.4q-3.43,0-8.13.33l-6.68.46a2.82,2.82,0,0,1-.52-2c0-1.59.08-2.38.26-2.38a19,19,0,0,0,5.09-1.12c2.34-.76,3.81-1.61,4.43-2.58a61.76,61.76,0,0,0,5-10.31l24.6-59.5q3-7.94,4.89-9.52a3.34,3.34,0,0,1,2.25-.93A2.2,2.2,0,0,1,847.65,147.09Zm-15.86,49.19q4.62.39,9.52.39c3.08,0,6.7-.13,10.84-.39l.26-.53-10-26.44-10.84,26.44C831.52,196.1,831.61,196.28,831.79,196.28Z"/><path class="cls-1" d="M968.76,165.21c0-4.67-.44-8.2-1.32-10.57-.44-1.06-1.92-1.91-4.43-2.52a26.86,26.86,0,0,0-5.88-.92q-.54,0-.6-1.92a4.5,4.5,0,0,1,.33-2.45q14.14.93,16.66.92,3.43,0,8.85-.46t6.75-.46a5.47,5.47,0,0,1,.26,2.11c0,1.51-.17,2.26-.52,2.26a25.43,25.43,0,0,0-5.69,1c-2.55.66-4.23,1.56-5,2.7-1,2.39-1.46,6-1.46,11V216q0,4.76.53,18.51c-.35.35-1.32.53-2.91.53-1.41,0-2.82-1-4.22-3l-52.63-69.81v53.55c0,5.28.35,8.9,1.06,10.84q.66,1.58,4.89,2.71a27.24,27.24,0,0,0,6,1.12c.26,0,.42.62.46,1.85a6.89,6.89,0,0,1-.2,2.51q-15.86-.8-16.53-.79c-2.37,0-5.31.11-8.79.33s-5.79.37-6.93.46a3.28,3.28,0,0,1-.53-2.25c0-1.41.17-2.11.53-2.11a25.09,25.09,0,0,0,6-1q3.76-1,4.83-3,1.32-2.78,1.32-11.1V163.49c0-4.76-.48-8-1.45-9.65q-.54-.93-4.57-1.72a34.1,34.1,0,0,0-5.88-.79c-.35,0-.55-.67-.6-2a3.75,3.75,0,0,1,.47-2.51q13.88.66,15.73.67,4.37,0,11.9-.67a137.87,137.87,0,0,0,9.19,14.09q6.67,9.32,18.31,24.59t15.87,21.08a39,39,0,0,0,.26-5.41Z"/><path class="cls-1" d="M1042,147.36q3.83,0,8.85-.2c3.36-.13,6.35-.19,9-.19a43.23,43.23,0,0,1,7.87.72,31.58,31.58,0,0,1,7.8,2.58,28.11,28.11,0,0,1,6.88,4.56,20.84,20.84,0,0,1,4.88,6.94,22.46,22.46,0,0,1,1.93,9.39,25.13,25.13,0,0,1-3.24,12.16,27.77,27.77,0,0,1-9.79,10.12,26.9,26.9,0,0,1-14.74,4.16,16.38,16.38,0,0,1-5.55-1,7.94,7.94,0,0,1-3.84-2.45,2.85,2.85,0,0,1-.46-1.32,6.07,6.07,0,0,1-.07-2c.09-.62.23-.93.4-.93a18.4,18.4,0,0,0,7.4,1.33,11.68,11.68,0,0,0,10-5.23q3.7-5.22,3.7-13.15,0-8.87-3.57-14t-11-5.15q-5.54,0-7.67.93-1.59.78-1.58,13.75v47.2q0,7.92,1,11.23c.27,1.06,1.74,1.92,4.44,2.58a27.8,27.8,0,0,0,5.88,1c.35,0,.52.75.52,2.24a7.39,7.39,0,0,1-.26,2.26q-14.54-.79-18.77-.8-3.57,0-8,.2l-7.07.33-2.65.27a4.53,4.53,0,0,1-.4-2.39c0-1.41.13-2.11.4-2.11a22.84,22.84,0,0,0,5.09-.86c2.25-.57,3.55-1.25,3.9-2.05.53-1.58.79-5.6.79-12v-50a51.79,51.79,0,0,0-.79-10.84c-.26-.71-1.56-1.45-3.9-2.19a19,19,0,0,0-5.09-1.12c-.35,0-.53-.67-.53-2s.18-2.12.53-2.37C1033.67,147.22,1039.54,147.36,1042,147.36Z"/><path class="cls-1" d="M1106.39,165.34c0-5.28-.35-9-1.06-11.1-.35-.71-1.58-1.39-3.69-2.05a17.85,17.85,0,0,0-4.77-1c-.35,0-.53-.67-.53-2a5.25,5.25,0,0,1,.27-2.38c.44,0,2.88.14,7.34.39s7.86.4,10.25.4q1,0,16.92-.79a6.88,6.88,0,0,1,.39,2.11c0,1.51-.17,2.26-.53,2.26a21.16,21.16,0,0,0-4.75,1.06q-3.57,1.05-3.84,2a48.8,48.8,0,0,0-1.06,11.63v49.72a49.15,49.15,0,0,0,1.19,11.89c.18.62,1.39,1.26,3.64,1.92a20.35,20.35,0,0,0,4.56,1c.35,0,.53.84.53,2.51a5.73,5.73,0,0,1-.27,1.85q-15.86-.8-16.78-.79c-1.77,0-3.62,0-5.56.13l-6.41.33-5.62.33a2.54,2.54,0,0,1-.53-1.85c0-1.67.17-2.51.53-2.51a21,21,0,0,0,5-.93c2.25-.61,3.5-1.27,3.76-2a46,46,0,0,0,1.06-11.1Z"/><path class="cls-1" d="M1210.84,165.21c0-4.67-.44-8.2-1.32-10.57-.44-1.06-1.92-1.91-4.43-2.52a26.77,26.77,0,0,0-5.88-.92q-.53,0-.6-1.92a4.6,4.6,0,0,1,.33-2.45q14.16.93,16.66.92c2.29,0,5.25-.15,8.86-.46s5.86-.46,6.74-.46a5.42,5.42,0,0,1,.27,2.11c0,1.51-.18,2.26-.53,2.26a25.27,25.27,0,0,0-5.68,1q-3.84,1-5,2.7c-1,2.39-1.45,6-1.45,11V216q0,4.76.52,18.51c-.35.35-1.32.53-2.91.53-1.41,0-2.81-1-4.23-3l-52.62-69.81v53.55c0,5.28.36,8.9,1.06,10.84q.66,1.58,4.89,2.71a27.34,27.34,0,0,0,6,1.12c.27,0,.42.62.46,1.85a7.2,7.2,0,0,1-.19,2.51q-15.87-.8-16.53-.79-3.57,0-8.79.33t-7,.46a3.33,3.33,0,0,1-.53-2.25c0-1.41.18-2.11.53-2.11a25.23,25.23,0,0,0,6-1c2.5-.66,4.12-1.65,4.82-3q1.32-2.78,1.33-11.1V163.49c0-4.76-.49-8-1.46-9.65-.35-.62-1.88-1.19-4.57-1.72a34.1,34.1,0,0,0-5.88-.79c-.35,0-.55-.67-.59-2a3.64,3.64,0,0,1,.46-2.51q13.89.66,15.73.67,4.37,0,11.9-.67a139.64,139.64,0,0,0,9.19,14.09q6.67,9.32,18.31,24.59t15.87,21.08a37.42,37.42,0,0,0,.26-5.41Z"/><path class="cls-1" d="M1256.32,147.5q5.82,0,20.5-.47t22.21-.46q.53,4,2.11,11c1.06,4.72,1.64,7.3,1.72,7.74a4.09,4.09,0,0,1-2.78.66c-1,0-1.58-.3-1.84-.92q-4.37-11.78-16.93-11.77h-6.88c-6.51,0-9.87.58-10,1.72a54.34,54.34,0,0,0-.8,10.71v20.75c0,.54,1.94.8,5.82.8h7.41q7.67,0,9.12-.66c1-.44,1.71-2,2.24-4.63.27-1.32.53-2.43.8-3.3.09-.62.79-.93,2.12-.93a3.58,3.58,0,0,1,2.51.66v25a3.89,3.89,0,0,1-2.51.53c-1.15,0-1.86-.36-2.12-1.06a40.66,40.66,0,0,0-1.65-5.29,7.62,7.62,0,0,0-.93-1.85c-.13-.09-.51-.35-1.12-.8q-1.71-1-12.16-1-9.52,0-9.53,1v20.5q0,7.28,1.19,10.71c.44,1.14,3.44,1.72,9,1.72h4.89q10.3,0,15.73-2.78a15.1,15.1,0,0,0,4.76-4.63,27.72,27.72,0,0,0,4.1-8.06c.09-.53.7-.79,1.85-.79,1.94,0,3.18.26,3.7.79q-.39,1.18-1.91,5.42t-2.32,6.41c-.53,1.46-1.1,3.24-1.72,5.36a38.09,38.09,0,0,0-1.19,5.15q-5.3,0-21.88-.39t-23.33-.14l-17.59.53a3.48,3.48,0,0,1-.4-2.12c0-1.49.14-2.24.4-2.24a22.18,22.18,0,0,0,5-.86c2.2-.57,3.48-1.25,3.83-2.05q.93-2.78.93-12v-50q0-7.95-.93-10.84-.4-1.47-3.7-2.38a20.76,20.76,0,0,0-5.29-.93c-.35,0-.53-.67-.53-2a3.58,3.58,0,0,1,.53-2.37Q1247.47,147.5,1256.32,147.5Z"/><path class="cls-1" d="M1317.14,169.57q0-9.91,8.33-16.72a28.88,28.88,0,0,1,18.78-6.81,47.11,47.11,0,0,1,6.47.39c1.86.27,4.43.82,7.74,1.66s5.57,1.39,6.81,1.65a117.76,117.76,0,0,1,1.58,20.36,1.44,1.44,0,0,1-1.58,1.19c-2.38,0-3.66-.4-3.84-1.19a23.17,23.17,0,0,0-5.68-11.9,15,15,0,0,0-11.9-5.81q-6.07,0-9.32,3.43t-3.24,9.26a14.84,14.84,0,0,0,.46,3.76,9.37,9.37,0,0,0,1.85,3.5c.93,1.16,1.68,2.1,2.25,2.85a16.05,16.05,0,0,0,3.3,2.85c1.63,1.14,2.74,1.94,3.31,2.37s1.89,1.3,4,2.58a39.08,39.08,0,0,0,3.76,2.18,51,51,0,0,0,4.43,2.85c2.43,1.45,4.12,2.51,5.09,3.17a52.81,52.81,0,0,1,4.23,3.37,19,19,0,0,1,4,4.49,27.44,27.44,0,0,1,2.31,5.36,22.37,22.37,0,0,1,1.06,6.94,21.46,21.46,0,0,1-8.52,17.45,30.63,30.63,0,0,1-19.77,6.88q-7.93,0-24.33-3.7a119.45,119.45,0,0,1-2.19-12,89.61,89.61,0,0,1-1-9.45c.09-.71.8-1.06,2.12-1.06,2.29,0,3.57.35,3.84,1.06a25.71,25.71,0,0,0,1.84,5.22,38,38,0,0,0,3.65,6.08,17.36,17.36,0,0,0,6.21,5.29,18.68,18.68,0,0,0,8.79,2,14.79,14.79,0,0,0,10.31-3.7q4.11-3.7,4.1-11.1a11.54,11.54,0,0,0-.86-4.37,15,15,0,0,0-2-3.57,19.14,19.14,0,0,0-3.3-3.18c-1.45-1.14-2.67-2-3.64-2.64s-2.4-1.48-4.29-2.57-3.24-1.88-4-2.32a8.09,8.09,0,0,0-1.45-1.06c-2.56-1.58-4.49-2.81-5.82-3.7s-3-2.18-5.09-3.9a26,26,0,0,1-4.69-4.83,24.73,24.73,0,0,1-2.84-5.55A19.85,19.85,0,0,1,1317.14,169.57Z"/><path class="cls-2" d="M8.29,231.3c1.79.86,3.64,1.6,5.35,2.58,3.68,2.11,4.19,2.17,8-.18.5,1.51.95,2.89,1.65,5l5.17-.85c-.07-.45-.13-.9-.2-1.36,4.17,1.44,8.43,6.46,12.28-.42l2.81,1.75,2.38-4c-2.36-3.09-4.11-6.31-.8-10.12L44,223c-1.5.93-3,1.92-4.52,2.75a5.65,5.65,0,0,1-2.44.65c-6.29.1-12.34-1-17.8-4.28-1.5-.89-2.54-2.57-3.82-3.86a30.47,30.47,0,0,1-2.37-2.31c-1.09-1.37-2-2.84-3-4.28,1.36-.22,2.83-.9,4-.6,4.19,1.07,8.3,2.48,12.66,3.83.88-3.23-.84-6.13-3.17-8.76-2-2.21-4.37-4-6.1-6.38-1.54-2.1-2.44-4.67-3.62-7,.37-.23.74-.46,1.1-.7l6.4,2.78,4.82-5.73c5.4,1.72,10.71,3.44,16.05,5.1a12.65,12.65,0,0,0,10.87-1.35c.74-.46,2.76-.38,3,0,1.36,2.87,2.93,1.1,4,.13,1.36-1.21,3.51-2.37,2-4.91a40.08,40.08,0,0,1-1.79-3.88c-1.73.57-3.84.56-2.66,3.56.17.42-.82,1.87-1.22,1.85-4.15-.22-8.32-.51-12.43-1.13-.65-.09-1-1.91-1.71-3.26-9.41,2-21.35-4.77-21.62-13.77l13.29,6.87c-1.75-5.53-8.19-8.88-7-15.83l3.27-.74c-1.86-4.61-3.64-9-5.79-14.3,3.17,1.49,6.09,2.06,7.77,3.82,3,3.17,7.1,3.31,10.68,4.79,2.51,1,3.72.34,4.35-3,.84-4.44-.89-6.42-4.1-8.72a31.47,31.47,0,0,1-11.39-14.9c5.13-.58,8.34,2.45,12.13,4.27,3.45,1.66,7.58,1.87,11.9,2.83l2.44-2.1c-2.89-5.87-11.45-2.93-14-9.5,3.66-1.84,2.48-4.67.8-6.89-1.26-1.65-3.51-2.56-5.1-4.12-5.39-.63-5.79-1.07-5.76-8l7.56,5.18c-.06-.83-.11-1.56-.25-3.47l20.67,6.7.24-.81-4.67-6.43c-10.05.34-17.85-5.41-19.58-15.62,2.42,1.28,4.33,2.24,6.19,3.29a24.26,24.26,0,0,0,3,2,11.79,11.79,0,0,0,3.23.3c-.39-1.16-.51-2.55-1.24-3.42a49.65,49.65,0,0,0-4.67-4.37l.82-1.19,14.09,6.77V89.34c-11.33-1.3-14.27-3-15-9.22l6.24,4.46L48.2,77.51l.71-.41,9.29,8.18c1-2.93.91-2.85-2.11-5.57-1.82-1.64-4.83-3-2.19-6.91L57.13,78l1-.23a22.22,22.22,0,0,0-1.46-4.53c-1.9-3.26-2.36-5.66,1.34-8.42,2.2-1.64,3-5.1,4.65-8C63.75,60,64.78,63,65.8,66l1.44-.2c.32-1.31.64-2.61,1.06-4.35,4.86,3.53,1.66,8.57,3,13.36L75.06,69c2.07,5-1.92,7.55-4.12,11.06,5.52,2,6.34-3,8.69-5.54,1.19,1.48,2.31,2.86,3.42,4.25l1.38-.25q-2.45,6-4.88,11.9l1.34.57L84,85.05c5,4.42,2.51,15.1-4.08,21.82l1.57,8.25,11.33-8,1.2.94c-1.38,2.21-2.42,4.76-4.21,6.57-4.17,4.23-9.39,5.72-15.39,5.22-2.11-.18-5.76.37-6.23,1.57-1.1,2.8-.76,6.18-.83,9.34,0,.27,1.32.9,1.94.81,3.55-.55,7.38-.62,10.51-2.11s5.33-4.39,7.92-6.72a15.52,15.52,0,0,0,1.59-2c3.38,2,1.2,4.34.21,7.46l6.76-4.63a29.67,29.67,0,0,1-1.23,3.25c-.24.45-1.07.79-1.06,1.15.19,4.27-3,6.54-5.46,9.16A24.23,24.23,0,0,1,86.09,139c-1,.8-1.91,1.67-2.87,2.51,1,.88,2.07,1.77,3.12,2.63.49.39,1,.72,1.46,1l9.51-7.89c-.37-2.12-.71-4.12-1-6.12l.88-.53,5.51,3.8-6-10.65c6-1.88,8,3.56,11.31,5.33,1.06-1.58,2.06-3.07,3.07-4.56l1.46,1.33.94,3.3,6-2c-.62-5-1.75-5.93-6.46-6.21-1.25-.07-2.44-1.13-3.32-2.14-1.6-.29-4.18-.08-4.63-1-2.73-5.39-9-9.13-8-16.73,5.29,1.91,7.64,9.31,14.46,7,1.17,3.37,3.2,3.69,8.22,1.27.19.75.36,1.45.62,2.44l2.43-1.94c-4.35-6-10.41-6.88-15.74-6.7-2.33-1.61-3.82-3.5-5.31-3.49-3.07,0-4.11-1.42-5-3.94-.63-1.87-2-3.48-2.84-5.29a7.39,7.39,0,0,1-.23-2.52,13.81,13.81,0,0,1,2.33.52c2.44.95,4.86,2,8.06,3.29.51,1.69,1.31,4.57,4.83,2.91.93,1.86,1.69,3.36,2.57,5.1.93-.66,1.59-1,2.16-1.53,1.11-1,2.18-1.94,3.27-2.91-1-1-1.91-2-2.93-2.94-2.39-2.2-4.84-4.33-7.22-6.55-.35-.32-.73-1.09-.58-1.4,1.36-2.75-.22-4.47-1.94-6.27-.43-.46-.33-1.42-.65-3.09l6.64,5.12c-.68-3.21-2.92-5.84-.52-7.94l10.91,10.25c4.89-3.65,8.23,2.43,13,1.42a81.34,81.34,0,0,0-.09-9.88c-.41-3.39-3.06-3.56-6-3.67-4.18-.14-8.56-.41-12.43-1.81-5.17-1.87-8.08-6.59-9-12.85l12.72,9.72c.46-2.85.92-5.64,1.54-9.43-5.3-4.68-7.34-12.08-6.67-20.34.1-1.37,1.24-2.65,1.9-4,.75,1.12,1.56,2.22,2.24,3.38.55.94,1,2,1.43,3l1.6-.6c-1.71-4.42-3.42-8.84-4.83-12.47l4.76-5.56c2.27,2.62,3,7.83,9.07,6.5-2.37-4.21-6.49-7.29-4.31-12.84,1.31,2.4,2.35,4.29,3.74,6.81,1.8-5.32-2-11.12,3.15-15.13.5,1.8.91,3.29,1.33,4.78l1.49.14c1-3.47,2-6.94,2.82-9.64,2.52,3.53,5.28,7.09,7.62,10.91.66,1.07.35,3,0,4.38-.73,2.58-1.85,5.05-2.81,7.56l1.15.53q1.57-2.77,3.13-5.55l1.56.46c-.4,1.58-.46,3.37-1.29,4.68-1,1.54-2.76,2.53-3.9,4a16.42,16.42,0,0,0-1.69,3.73l1.23.77,9.39-8.93.87.25c-.71,2.26-1.42,4.52-2.42,7.65,2.42-1.76,4.29-3.14,6.48-4.74-.44,6.85-5,9.78-15.59,10.34-.1,1.71-.2,3.46-.39,6.57l15-8,.92.9c-1,1.34-2,2.74-3.1,4-.87,1-2.17,1.67-2.84,2.75-.45.73-.13,1.92-.16,2.91.87-.08,1.92.12,2.58-.3,1.81-1.12,3.39-2.6,5.19-3.74a47.76,47.76,0,0,1,4.74-2.27c-.22,9.92-9.1,17.27-20.09,17.34l-5,7.44.18.92,22-7.82c-.42,2.28-.57,3.1-.8,4.32l8.14-6.3c.25,7.56-.48,8.58-6,8.64-.17.89-.35,1.85-.57,3-4.54-1.69-4.88,1.94-5.82,4.56-1,2.83-.63,3.54,2,5-.79,3.88-3.86,4.93-7.09,6.13-2.82,1-5.39,2.74-8.52,4.38l3.25,3c2.85-.5,5.2-.76,7.46-1.33A18.2,18.2,0,0,0,158.59,86c3.53-2.39,6.85-5.07,12.12-4.47a40.23,40.23,0,0,1-12.58,17.54c-3.65,3-5.23,7.3-3.32,11.28.46,1,3.38,1.35,5,1a25.48,25.48,0,0,0,11.69-5.92c1.59-1.41,3.92-2,6.76-3.35-2.23,6-4.12,11-6.13,16.39h3.35c1.75,7.65-4.61,12-7.06,18.25l13.16-7.27c3.68,9.86-13.81,16.86-23,14.95.55.9,1,1.56,1.45,2.4-2.8,2-5.11,5.57-9.31,2.25-.32-.25-1.21.21-1.84.35-4.12.89-4,.86-4.91-3.54-.19-.9-1.55-1.56-2.4-2.37-4.3,6.7-3.75,9,2.67,11.63,1.67-5,4.53-1,6.94-.81s4.79,1.42,6.89.93a111.69,111.69,0,0,0,13.67-4.54c1.89-.7,4.65-1,3.15-5.11,2.73,3.69,7.66,1.86,9.73,6.07.6,1.21,5-.28,4,4.78l4.64-3.56c-1-1.08-2.54-2-2.92-3.26-1-3.32-6.85-3.34-5.31-8.38.29-.92-1.49-2.47-1.77-4.26l4.18,2.72v-6.08c.94.58,1.41.7,1.58,1,3.75,6.52,10.63,7.07,17.79,9.21-.15-3.18,0-6.06-.52-8.78-.63-3-3.12-2.57-5.53-2.19a13.7,13.7,0,0,1-15.79-11.45c2,1.37,3.63,2.4,5.16,3.56s3,2.53,4.69,3.9c.39-2.59.73-4.82,1.18-7.73-5.25-6.12-7.1-14.46-3.45-19.56l2.86,5.24,1.07-.44c-1.3-3.33-2.61-6.65-3.83-9.75l3.66-4.2c2.12,1.68,2.32,6.22,6.72,5l-3.94-9.09,1.31-.62c.81,1.39,1.64,2.77,3,5.06.25-4.59.45-8.18.65-11.77l1.46,0c.42,1.07.83,2.15,1.24,3.23l1.19.21,2.23-7.53c2,2.88,4.23,5.72,6,8.8.52.9.1,2.54-.24,3.73-.53,1.85-1.37,3.61-2.08,5.41l.94.46,2.75-4.53c1.94,2.91.06,4.18-1.27,5.67s-2.3,2.87-3.44,4.31l1.13,1,7.63-7,.61.27c-.52,1.66-1.05,3.31-1.81,5.72l4.53-3c.17,5-3.43,7.34-12,7.6-.07,1.42-.14,2.88-.25,5.15,2.6-1.24,4.5-2.08,6.34-3a17.73,17.73,0,0,1,6.12-2.4l-5.33,7.13,1.1,1.06,9.61-5.66c-1.54,9.16-6.68,13.34-16.14,14.08L210,128.24l8.48-2.9c2.51-.86,5-1.84,7.54-2.51.58-.15,1.44.78,2.74,1.55l4.87-3.85c0,3,1.35,6.14-3.6,6.85-2.07.3-5.8,2.29-6,6.09,0,.79-.41,1.88,0,2.32,3.72,4.36-.84,4.6-2.94,5.8-2.29,1.32-4.8,2.26-7.86,3.66l3.48,3.1c.44-.35.74-.8,1-.79,6,.12,10.34-4.06,15.5-6.1a8.79,8.79,0,0,1,2.72,0,26.12,26.12,0,0,1-10.22,14.12c-3.84,2.58-2.41,5.75-2.22,8.87,0,.53,1.58,1.56,2.1,1.38a60.52,60.52,0,0,0,8.2-3.4c2.47-1.26,4.75-2.9,7.89-3.85l-4.3,11.68,1.25-.07c.41,1.32,1.39,2.79,1.09,3.93a34.6,34.6,0,0,1-2.89,6.48,9.76,9.76,0,0,0-1.42,4l9.63-5.23c.36,4.28-1.14,7.15-4.33,8.7-2.89,1.41-6.15,2-9.18,3.17-1.78.67-4,.16-5.19,2.79-.5,1.11-3.39,1.2-5.21,1.62-.41.1-1-.6-1.41-.5-3,.84-5.74,1.34-5.43-3.31,0-.23-.86-.51-1.3-.76-3.54,4.65-3.39,5.57,1.41,8.79l.18-1.15c1.69.11,3.8-.37,5,.46,3,2.11,5.87,1.18,8.66.36,4.08-1.2,8-2.91,12.3-4.5,1.17,1.54,2.49,3.3,3.93,5.19l5.77-2.59c.36,5.16-3.09,7.83-5.78,10.86s-5.13,5.85-4.4,9.85l13-4.44c.3.44.6.87.91,1.3-2.7,4.86-5.74,9.43-11.5,11.56-5.61,2.08-11.21,3.62-15.83-.57-.63,3-1.4,5.83-1.75,8.7-.13,1.13.68,2.37,1.08,3.59,1.23-.19,2.81-.77,3.05-.42,3.33,4.8,6.42,1.31,8.59.28l5.5,1.59c.48-1.86.81-3.17,1.17-4.58,2.45,1.37,3.09,1.23,10.53-2,.52,4.58-1.6,8.38-6,9.91-2.32.8-3.7,1.63-4.24,4.39-.85,4.43-4.66,6.67-9.23,6.29a6.61,6.61,0,0,0-1.6.08c-5.72.91-5.72.91-9.07-1.21L212,259.38v27h-5.82c0-5.49.11-10.81,0-16.13s-.31-10.69-.92-16c-.16-1.34-2-2.47-3.09-3.7l0,0,2.79-3.17L195,239a43.59,43.59,0,0,0-5.28-.82c-1.43,0-2.94-2.49-4.57.68-.61,1.18-4.64.62-7.11.85l-.09-1.32,2.36-.28c-3.39-2.4-7.41,2.52-10.48-1.39-2.14-2.7-4.1-5.55-6.14-8.33l.74-.71,2.73.83.81-.82c-1.13-1.09-2.91-3.32-3.3-3.1-4.37,2.48-6-1.88-9-3.34-4.56,3.29-8.32,8.56-15.18,7.24v60.11c-5.95,1.58-7,1.28-7.2-4.72-.46-11.9-.21-23.84-.41-35.76q-.21-12-.93-24c-.11-1.8-1.27-3.55-2.14-5.81l-6.07,7.11c.12.43.45,1.55.48,1.66-3.27,1.27-6.3,2.44-9.32,3.65a2.52,2.52,0,0,0-1.28.88c-2.53,5.31-5,6.36-10,4.46-1.35-.51-3-.27-4.49-.38,0,.42-.06.83-.08,1.25l2.92.43c0,.4,0,.8,0,1.2-1.36,0-2.94.45-4-.09-2-1-5,.83-6.43-2.19-.14-.29-3.29.17-4.21,1.11-2.22,2.27-3.3.84-4.78-.57L69,247.55c4.19,3.64,9.77,3.4,15.12,3.95,1.1.12,2.39.08,3.21.66,3.58,2.47,6.2,2.48,9.87-.44.4,1.12.79,2.16,1.44,4,4.54-4.58,10.9-3.36,15.82-6.37,1.75,3.72,1,4.59-5,5.61-2.29,8.86-7.88,3.64-12.75,2.3-.12,1.73-.2,3-.35,5-6.2-5.55-13.29-3.57-18.77-3.46-2.29-3.24-4.11-5.79-5.92-8.35l-1.51,0c-.78,3.51-2.08,7-2.21,10.53-.31,7.9,0,15.81,0,23.72,0,6.64.07,6.64-7.11,5.83V259.16a13.49,13.49,0,0,1-11.92-4.55,4,4,0,0,0-6.31,0c-1.3,2.59-2.64,1.3-4.18,1.17a76.38,76.38,0,0,0-8.55-.43c-2.64.09-7.86-4.14-8.59-8-.53-2.77-1.57-4-4.41-4.56-4.52-.83-6.71-4.48-8.57-8.29Zm186.77-31.06,5.19-.65c.09,1.17.14,1.84.24,3.2l6.37-4.26c-2.85-1.34-5.21-1.8-6.59-3.21-5.71-5.85-14.41-1.58-20.39-6.28-.22-.18-.95.38-1.47.49-3.27.69-6.54,1.75-9.84,1.88-2.27.08-4.83.72-7-1.93-1.16-1.41-4.46-1.08-6.8-1.53l-.18,1.17c4.69,1.69,5.41,3.64,3.07,8.29-.3.6-1.07,1.23-1,1.71.39,1.76,1.05,3.46,1.67,5.38l3.13-1.84c4.35,4.28,6.07,4.67,9.29,2.38,1.31-.94,2.74-1.73,3.3-2.08l3.8,2.73.75-.9c-1.73-2.65-3.45-5.31-5.11-7.86l2.5-3.11c1.48,1,3,1.9,4.35,3,4.12,3.14,8.23,5.71,12.84.77.29-.31.88-.33,1.49-.54C194.84,198.19,194.94,199.1,195.06,200.24ZM94.19,218a27.78,27.78,0,0,0-4-.47c-.21,0-.41,1.09-.61,1.68a13.84,13.84,0,0,0,3.57,1.1,42.37,42.37,0,0,0,5.66-.57l2.15,2.65c0-.38-.11-.78-.16-1.17l16-5.35c.56,1.29,1.1,2.57,1.63,3.8,4.88-.78,10.06-.4,13.3-4.29l-14.06-12.16c-1.56,1.2-3.1,3.64-5.43.15-.42-.64-3.48-.29-4.69.53-2.5,1.73-2.5,6.62-7.25,5.75-.28,0-.77,1-1.15,1.51ZM133,153.35c-4.2-2.36-7.93-4.55-11.75-6.57-1.85-1-4.22-2.73-5.76-2.24-4.76,1.49-8.81.07-12-1.59A51,51,0,0,1,99,145.18c-1.46.52-3,.8-5.34,1.4l4.29,2.63c1.37-.87,2.65-1.7,4.31-2.77.11,2.42-.39,4.54.39,5.95,1.9,3.43,11.31,5.68,15.1,4.24,2.44-.92,5-1.43,7.93-2.23v3.95C128.67,156.85,132.12,156.66,133,153.35Zm29.35,56.92c-1.6,5.5-5.05,2.3-8,2l.61-2.52-1.26-.44c-.63,1.67-1.77,3.34-1.77,5,0,2,1.74,2.1,3.53,1.76a4,4,0,0,1,2.55.95c2.6,1.81,5.09,2.36,7.24-.19l3.94,2.33,3.64-4.94c-.14-.11-1.16-1.43-1.85-1.28-1.44.32-2.71,1.41-4.36,2.36-.17-1.1-.41-2.66-.65-4.28ZM35.69,249.5c2.68.19,4.54.58,6.34.38A21.39,21.39,0,0,0,48,248.31a3.25,3.25,0,0,0,1.68-2.51c-.14-1.21-1.14-2.32-1.77-3.47l-.82.34c.08.68.16,1.36.26,2.11-2.86.48-6,2.75-8.25-2.57L34.74,248c-.4-1-.75-1.94-1.22-3.13l-4.59,1.57c-.11.53-.23,1.06-.34,1.58,4.16-1.74,3.33,1.4,4.09,3.25ZM81,194.75l-1.2-5.38,4.38,1.84.87-1-3.47-4.41-14.47,7.43,7.53,4.21.45-3.36Zm111.67-21.08L180,167.57c-2.5,2.64-5,6.39-4.16,11.47l1.23.34c.37-1.6.73-3.2.94-4.08Zm-65.31,3.14c2.44-2.25,5.12-4,6.77-6.42s.18-6.53-1.78-7.6A24.91,24.91,0,0,1,129,166.7C125.39,169.49,124.76,172.56,127.37,176.81Zm-24.16,1.67-5.8,7.61c.57,1.56.91,1.52,3.83-2.7.48.82.93,2.28,1.41,2.29a22.37,22.37,0,0,0,6.64-.69c.51-.15.38-2.44.55-3.75l-4.26.48C104.79,180.63,103.7,179.15,103.21,178.48Zm-10.89-7.24c.19-.76,1.18-2.39.78-3.52a6.69,6.69,0,0,0-8.6-3.67c-2.24.79-4.23,2.71-3.7,5.75l5.73,1.45c.33-1,.62-1.95.91-2.87l1.37-1.06Zm-13.56-16c1.77-.16,2.92-.34,4.07-.34,1.58,0,3.15.16,4.73.25.13-3.67,3.27-1,4.2-1.81l1.62-4.8c-6.06-.31-11.45.77-15.61,5.62ZM232.53,247c-.57-1.71-.4-5.68-4.52-1.5-.74.75-3.63-.65-6.31-1.21,0,.52-.58,3-.07,3.28a34.1,34.1,0,0,0,8,2.46,27.16,27.16,0,0,0,5.32.07c.9-1,1.91-2.05,2.91-3.14,0-.32-.06-.64-.08-1ZM68.45,201.24c-3.45,2.53-4.67,5.86,5,12.13,2.13-4.33,1.53-6.7-2-9A19.61,19.61,0,0,1,68.45,201.24Zm70-96.18h1.13l7.82-6.56c-1.48-1.33-2.6-2.8-4.09-3.51-1-.47-3.47,0-3.55.33C139.07,98.53,138.81,101.81,138.43,105.06Zm6.23,29.84c3.75-.9,7.06-3.81,11.17.78L161,129,155.88,128Zm-15.93,52.72c.48,3.31.84,5.74,1.21,8.21l4.1-1.69c1.67-4.9,3.06-9,4.44-13.06l-1.12-.27C134.45,188.32,133.35,189.42,128.73,187.62Zm-67-37.18c1.59-3.56,1.4-7.1-1.11-9.36-.8-.71-4.39,1.69-7.18,2.87Zm119.11,73,.06.4a30.24,30.24,0,0,0,5.77.19c.59-.09.95-1.81,1.41-2.78l-4-.56-2.65-3.61-5.09,6c.14.43.29.86.43,1.29Zm4.33-60.55,13.3,2.16C193.25,157.87,187.81,157.24,185.18,162.86Zm16.3,54.22c7-6.54,7.65-8.63,3.92-11.05a13,13,0,0,1-2.26,2.87C200.07,211.05,199.61,213.62,201.48,217.08ZM71.84,223.29c-6.65,1.75-6.22-3.84-9.26-5.93,1.34,3.57,2.69,7.14,4.32,11.47l4,1.45C71.17,228,71.46,226,71.84,223.29Zm-15.56-47-10.72-5.91-4.46.74,4.6,6C49.55,173.25,52.87,175.81,56.28,176.28Zm153.84-16.35,1.19.23,6.84-5.73L211.82,152Q211,155.94,210.12,159.93Zm5.36,23.33.35.57c2.14-.45,4.39-1.57,6.38-1.21,4.09.74,4.83.5,5.35-5.15C223.15,179.59,219.32,181.43,215.48,183.26Zm-5.16,37.61L204,227.34l-1.28-.62c.35,1.76.7,3.52,1.07,5.43l3-1.31C208.14,227,209.26,223.87,210.32,220.87ZM127.09,119.31l-1,1.39c4.05-.79,3.61,1.25,3.27,3.24l4.16-1.58v-6.49Zm-56.57,47.3,2.88-4.06-5.94-2.71C66.43,163.79,67.07,166.16,70.52,166.61ZM130,45.92,134.15,41h-9.33ZM29.6,243.51l-.73-1-6.95,1.31c-.09.47-.18.94-.28,1.4,1.61.48,3.3,1.49,4.8,1.26C27.62,246.26,28.55,244.55,29.6,243.51ZM74.9,94.41c-2-2.11-4-2.12-7.29.31l3,3.15Zm132.46,75.77L206,169.07l-4.43,2.3c.89,1.35,1.55,2.34,2.78,4.18C205.45,173.6,206.4,171.89,207.36,170.18ZM144.6,122.44l1.47.4c.34-1.44,1.26-3,.88-4.26-.6-1.89-2.26-2.79-4.43-1.92C143.37,119,144,120.72,144.6,122.44Zm-7.72-55.62c3.24,1.13,4.59,4.75,8.69,2.2C142.69,67.64,141.37,64.3,136.88,66.82ZM133.41,52l1.53-.87c-.17-1.64-.34-3.28-.53-5.13l-4.14.2Zm7.51,172c5.43-.1,5.69-.29,5.91-4.71C145.43,222,140.63,218.94,140.92,224Zm-82.38-63.5-1.16-1a24.27,24.27,0,0,0-3.36,4c-.2.35,1.4,1.7,2.51,3C57.43,163.77,58,162.12,58.54,160.46Zm145.33-47.28,3-3.69h-7.29ZM60.6,256.07c-.69-5.41-4.28-3.09-6.13-4.33-.21.45-.42.9-.62,1.35Zm2.52-139-.45-1.5c-2.78-1-4.3,1.21-6.08,2.74l.5,1.29Z"/><rect class="cls-1" y="284.72" width="263.1" height="7.23"/></g></g></svg>